<svg version="1.1" id="Layer_1" xmlns="http://www.w3.org/2000/svg" xmlns:xlink="http://www.w3.org/1999/xlink" x="0px" y="0px"
	 width="100%" viewBox="0 0 256 256" enable-background="new 0 0 256 256" xml:space="preserve">
<path fill="#E7E7E5" opacity="1.000000" stroke="none" 
	d="
M257.000000,59.000000 
	C257.000000,125.333336 257.000000,191.166672 257.000000,257.000000 
	C171.666672,257.000000 86.333336,257.000000 1.000000,257.000000 
	C1.000000,171.666672 1.000000,86.333336 1.000000,1.000000 
	C86.333336,1.000000 171.666672,1.000000 257.000000,1.000000 
	C257.000000,20.166666 257.000000,39.333332 257.000000,59.000000 
M129.033920,189.032654 
	C129.105698,191.948776 129.177475,194.864883 129.122131,198.670624 
	C129.135132,200.758942 129.148117,202.847260 129.047562,205.701279 
	C129.039948,206.471664 129.032349,207.242035 129.009613,208.840179 
	C129.107452,210.746277 129.205292,212.652359 129.137146,215.499863 
	C129.140228,217.683044 129.143311,219.866211 129.088287,222.976440 
	C129.259430,228.686172 129.430573,234.395920 129.680420,240.700424 
	C129.654465,241.098618 129.628525,241.496811 129.194717,242.624374 
	C129.115753,243.930038 128.967834,245.235733 128.968781,246.541336 
	C128.976105,256.574310 128.985077,256.574310 140.232529,255.756714 
	C145.734924,255.753235 151.237320,255.749756 157.639786,255.866562 
	C159.748001,255.834534 161.856232,255.802505 164.891525,255.896347 
	C167.427261,255.791367 169.962982,255.686386 173.266449,255.719589 
	C175.091751,255.713837 176.917068,255.708084 179.697998,255.843887 
	C182.594986,255.731018 185.491974,255.618134 189.227707,255.686493 
	C192.674789,255.612320 196.121887,255.538162 200.457520,255.708939 
	C202.292969,255.730881 204.128403,255.752808 206.779282,255.842789 
	C207.317413,255.764877 207.855530,255.686951 209.166565,255.723465 
	C210.993790,255.691910 212.821030,255.660339 215.582352,255.792389 
	C218.392990,255.771851 221.203644,255.751297 224.931015,255.863693 
	C227.090851,255.766312 229.250671,255.668915 232.276382,255.728592 
	C238.074570,255.712189 243.872757,255.695786 250.531982,255.852341 
	C256.764893,256.742615 256.145508,252.659195 255.784164,247.818741 
	C255.773117,241.964142 255.762070,236.109558 255.864761,229.341431 
	C255.816330,226.905029 255.767899,224.468613 255.838638,221.095215 
	C255.707809,218.569809 255.576996,216.044388 255.669601,212.776031 
	C255.684708,210.946838 255.699814,209.117645 255.868195,206.466537 
	C255.830948,205.632355 255.793701,204.798172 255.851288,203.080734 
	C255.760773,201.609665 255.670273,200.138580 255.734985,197.813385 
	C255.698593,194.304825 255.662201,190.796249 255.809814,186.327393 
	C255.686050,183.728409 255.562286,181.129410 255.676987,177.795502 
	C255.599609,175.734955 255.522217,173.674423 255.737808,170.649460 
	C255.743362,168.078217 255.748932,165.506973 255.846542,162.038330 
	C255.822739,159.618530 255.798935,157.198715 255.799072,153.874130 
	C255.714401,148.390915 255.629745,142.907715 255.759033,136.503754 
	C256.152039,128.962479 256.152039,128.962479 247.974960,129.039322 
	C242.059540,129.091644 236.144135,129.143951 229.329285,129.112961 
	C227.234039,129.106064 225.138794,129.099182 222.124161,129.038055 
	C219.657883,129.090866 217.191589,129.143677 213.924622,129.088547 
	C212.043762,129.125717 210.162888,129.162888 207.513794,129.094131 
	C206.996918,129.088898 206.480042,129.083649 205.081268,129.038071 
	C203.018814,129.069504 200.956375,129.100937 197.997513,129.059738 
	C194.699188,129.084854 191.400879,129.109970 187.236313,129.065704 
	C185.499146,129.061478 183.761993,129.057266 181.226761,129.013016 
	C180.429504,129.046417 179.632248,129.079819 178.020691,129.032623 
	C176.132065,129.104462 174.243454,129.176300 171.422424,129.118073 
	C168.927643,129.116791 166.432861,129.115509 163.059143,129.054794 
	C160.990265,129.077560 158.921402,129.100311 155.939819,129.031052 
	C150.004837,129.058578 144.069870,129.086105 137.212387,129.050018 
	C128.215485,129.103714 129.038742,127.724632 129.055054,137.204666 
	C129.055618,137.533096 129.127884,137.861404 129.076508,139.095383 
	C129.166443,144.609116 129.256393,150.122849 129.143829,156.536194 
	C129.137650,158.668488 129.131485,160.800781 129.059082,163.849960 
	C129.072098,166.613953 129.085098,169.377945 129.045013,172.958984 
	C129.125946,174.840378 129.206879,176.721756 129.125732,179.412460 
	C129.126068,179.962448 129.126389,180.512421 129.086960,181.875244 
	C129.098007,183.230988 129.109055,184.586746 129.044159,186.679474 
	C129.064957,187.171219 129.085754,187.662949 129.033920,189.032654 
M2.869154,29.103346 
	C2.888606,30.782042 2.908058,32.460735 2.576434,34.883823 
	C2.525309,37.784695 2.474183,40.685566 2.278683,44.321175 
	C2.263795,46.098492 2.248907,47.875813 2.114368,50.510609 
	C2.119944,51.377979 2.125520,52.245346 2.102584,53.999226 
	C2.202851,55.767776 2.303117,57.536331 2.259063,60.158905 
	C2.288862,63.350544 2.318661,66.542183 2.183527,70.616180 
	C2.180453,72.699852 2.177379,74.783516 2.139457,77.786491 
	C2.243398,78.388161 2.347339,78.989822 2.284591,80.318375 
	C2.282633,82.084518 2.280676,83.850670 2.132328,86.563545 
	C2.138713,89.411995 2.145099,92.260437 2.105168,95.985962 
	C2.138991,98.057053 2.172815,100.128136 2.194094,103.108887 
	C2.293074,108.924797 2.392055,114.740700 2.264938,121.429466 
	C1.334429,128.851166 7.032497,125.116463 10.886012,126.282272 
	C16.594917,126.214401 22.303823,126.146530 28.569370,126.583252 
	C31.021549,126.365494 33.473728,126.147728 36.845989,125.978706 
	C38.999432,125.927208 41.152874,125.875710 44.123875,126.049805 
	C46.395439,126.025459 48.667004,126.001122 51.629860,126.004349 
	C52.091160,125.999298 52.552460,125.994255 53.834198,126.025963 
	C55.474411,126.051346 57.114624,126.076729 59.352066,126.724472 
	C62.891071,126.789055 66.430077,126.853645 70.779976,126.975166 
	C72.560173,126.680176 74.340370,126.385185 76.837418,126.046783 
	C77.558449,126.032211 78.279488,126.017639 79.830177,126.233864 
	C81.795670,126.105659 83.761169,125.977455 86.649948,125.939438 
	C89.111755,125.947975 91.573555,125.956512 94.886589,126.015305 
	C97.154121,126.048401 99.421661,126.081497 102.659355,126.309372 
	C108.439873,126.207726 114.220383,126.106079 120.863029,126.045486 
	C126.986702,127.114098 126.122856,122.839302 126.252701,118.246254 
	C126.207077,112.695885 126.161446,107.145515 126.087372,100.759995 
	C126.054657,98.511215 126.021942,96.262436 126.013138,93.110306 
	C125.984222,90.693207 125.955307,88.276108 126.095161,85.000954 
	C125.796921,82.485352 125.498688,79.969742 125.899796,76.963173 
	C125.915665,74.641273 125.931526,72.319382 126.148270,69.091148 
	C126.115334,65.364235 126.082397,61.637325 126.071167,57.088608 
	C126.073883,55.718399 126.076591,54.348186 126.510864,52.587940 
	C126.373314,51.732521 126.235756,50.877102 126.247162,49.152752 
	C126.130371,46.840412 126.013573,44.528076 125.967224,41.306908 
	C125.990372,38.889278 126.013527,36.471649 126.051697,33.212063 
	C126.070442,31.269728 126.089188,29.327393 126.278343,26.397009 
	C126.297905,20.588461 126.317467,14.779913 126.689621,8.389224 
	C126.340317,6.483433 125.991020,4.577641 125.566986,2.264103 
	C123.226707,2.264103 120.981422,2.264103 117.838234,2.214874 
	C112.144699,2.447195 106.451164,2.679517 99.904488,2.896224 
	C97.880264,2.905660 95.856041,2.915096 93.088623,2.576936 
	C90.524567,2.529102 87.960518,2.481267 84.632378,2.273326 
	C82.499855,2.233803 80.367325,2.194279 77.399216,2.073206 
	C76.557549,2.095447 75.715881,2.117687 74.021843,2.101826 
	C72.603882,2.166893 71.185928,2.231958 68.893700,2.219706 
	C65.664993,2.240582 62.436291,2.261457 58.327835,2.162607 
	C56.266685,2.165438 54.205536,2.168269 51.262341,2.128368 
	C50.680332,2.201612 50.098320,2.274855 48.747887,2.263174 
	C46.699471,2.322276 44.651051,2.381377 41.644100,2.226757 
	C39.052879,2.201769 36.461655,2.176781 32.988350,2.094961 
	C31.207327,2.179446 29.426304,2.263932 26.763109,2.248600 
	C20.912563,2.236888 15.062018,2.225176 8.340443,2.103943 
	C1.912809,2.136425 1.912809,2.136425 2.187617,10.128135 
	C2.424906,16.176811 2.662195,22.225487 2.869154,29.103346 
M255.676880,6.639473 
	C256.206207,-0.575473 250.851120,2.874417 246.840790,2.198362 
	C241.329788,2.235744 235.818771,2.273127 229.411469,2.184069 
	C227.311172,2.168573 225.210876,2.153076 222.163177,2.057935 
	C219.269073,2.134459 216.374985,2.210982 212.708817,2.245356 
	C210.650894,2.673460 208.592987,3.101564 205.663376,3.221804 
	C203.259598,3.120381 200.855804,3.018959 197.705536,2.451576 
	C194.208435,2.396734 190.711319,2.341891 186.368744,2.165820 
	C184.946289,2.151874 183.523834,2.137928 181.198181,2.052013 
	C180.001190,2.127253 178.804184,2.202492 176.835983,2.240738 
	C175.029892,2.256741 173.223785,2.272745 170.467056,2.152908 
	C167.616837,2.136557 164.766602,2.120206 161.146286,2.078556 
	C159.178726,2.362155 157.211151,2.645755 154.559219,2.397755 
	C149.117096,2.339661 143.674988,2.281568 137.305313,2.110392 
	C128.917145,1.987414 128.917145,1.987414 129.099854,10.076906 
	C129.123367,15.985993 129.146866,21.895081 129.072662,28.678761 
	C129.072647,30.430964 129.072632,32.183167 129.031693,34.878677 
	C129.123749,37.740715 129.215820,40.602753 129.172836,44.233601 
	C129.164154,46.076283 129.155487,47.918964 129.060104,50.582653 
	C129.063477,51.409279 129.066849,52.235901 129.051010,53.974838 
	C129.236145,55.470394 129.421280,56.965950 129.289383,59.257595 
	C129.288956,62.755672 129.288513,66.253746 129.133514,70.623863 
	C129.126663,72.392044 129.119812,74.160217 129.077026,76.752853 
	C129.143143,77.297340 129.209244,77.841827 129.159073,79.184563 
	C129.181320,81.349365 129.203568,83.514175 129.095230,86.607986 
	C129.101913,89.096832 129.108597,91.585678 129.059906,94.956474 
	C129.068787,97.335640 129.077682,99.714798 129.051102,103.016388 
	C129.061127,108.313751 129.071167,113.611122 128.990463,119.800865 
	C128.112793,124.973885 130.414627,126.872711 135.403992,126.083763 
	C136.191223,125.959290 137.016830,126.077454 138.763458,126.315857 
	C144.516907,126.337784 150.270355,126.359711 156.657059,126.766716 
	C159.087601,126.492325 161.518158,126.217934 164.833557,125.990921 
	C166.900620,125.996628 168.967697,126.002342 171.547699,126.577560 
	C174.017471,126.334557 176.487259,126.091553 179.237305,126.306114 
	C179.823898,126.216446 180.410492,126.126785 181.842316,126.055428 
	C183.532761,126.052048 185.223221,126.048660 187.835968,126.224106 
	C191.576584,126.159393 195.317215,126.094673 199.833237,126.063774 
	C202.227707,126.035194 204.622192,126.006622 207.869705,126.216141 
	C209.928345,126.180077 211.986969,126.144005 214.617554,126.610405 
	C217.399841,126.425171 220.182129,126.239944 223.862305,126.061310 
	C225.959167,126.006035 228.056046,125.950760 231.041565,126.135239 
	C236.700485,126.165627 242.359406,126.196007 248.584229,126.612305 
	C250.818420,126.290497 253.052628,125.968689 255.730148,125.583031 
	C255.730148,123.213417 255.730148,120.972252 255.773621,117.834236 
	C255.408737,111.921204 255.043854,106.008163 255.318619,99.608665 
	C255.485550,97.437180 255.652496,95.265694 255.923080,92.154495 
	C255.841476,89.604759 255.759872,87.055031 255.708679,83.761292 
	C255.413055,81.858978 255.117432,79.956665 255.357300,77.704124 
	C255.523224,77.107918 255.689148,76.511711 255.890305,75.092308 
	C255.588974,73.054314 255.287643,71.016319 255.309708,68.229881 
	C255.433243,64.571121 255.556778,60.912357 255.824692,56.387299 
	C255.495544,53.855854 255.166397,51.324413 254.965622,48.087017 
	C255.215027,46.209633 255.464432,44.332245 255.865417,41.486496 
	C255.847855,38.625214 255.830307,35.763927 255.891281,32.012409 
	C255.798950,30.218271 255.706619,28.424131 255.735550,25.751829 
	C255.645187,19.664282 255.554825,13.576735 255.676880,6.639473 
M118.889740,129.068130 
	C113.045639,129.162842 107.201546,129.257538 100.455788,129.164429 
	C98.325294,129.143005 96.194801,129.121582 93.128761,129.046646 
	C90.616699,129.129410 88.104630,129.212173 84.817940,129.102203 
	C82.941780,129.107056 81.065613,129.111908 78.383614,129.059036 
	C77.575203,129.061264 76.766785,129.063477 75.093674,129.039200 
	C73.363022,129.073166 71.632370,129.107132 69.005180,129.044235 
	C65.702171,129.070358 62.399158,129.096481 58.237320,129.053497 
	C56.516022,129.073853 54.794720,129.094193 52.295345,129.036163 
	C51.516453,129.034607 50.737556,129.033035 49.127892,129.054184 
	C47.215927,129.128128 45.303967,129.202057 42.451717,129.140137 
	C39.935112,129.144012 37.418510,129.147888 34.129601,129.094391 
	C32.143925,129.367264 30.158247,129.640137 27.342512,129.667435 
	C21.692329,129.574371 16.042147,129.481308 9.465213,129.218994 
	C2.047477,128.879486 2.042080,128.879517 2.077238,136.312729 
	C2.081824,137.282303 2.175745,138.251434 2.204521,140.125687 
	C2.275544,145.620377 2.346566,151.115082 2.216916,157.407608 
	C2.450075,159.308075 2.683234,161.208542 2.577198,163.846603 
	C2.479295,166.686844 2.381392,169.527084 2.243352,173.142181 
	C2.245345,174.969131 2.247338,176.796082 2.093136,179.479233 
	C2.119010,180.347092 2.144883,181.214951 2.118235,182.966339 
	C2.195363,184.732071 2.272491,186.497787 2.243461,189.127716 
	C2.287456,192.324234 2.331452,195.520737 2.213032,199.594254 
	C2.210011,201.372971 2.206991,203.151672 2.103750,205.779388 
	C2.161840,206.627853 2.219931,207.476334 2.240182,209.092926 
	C2.303991,210.878052 2.367799,212.663193 2.206207,215.412399 
	C2.218167,217.964844 2.230128,220.517303 2.126429,223.959030 
	C2.148805,226.371124 2.171180,228.783203 2.201580,232.104507 
	C2.210523,237.660080 2.219467,243.215637 2.117884,249.646301 
	C2.125529,256.198181 2.159706,256.223724 11.162116,255.800354 
	C16.714361,255.805756 22.266605,255.811142 28.719400,255.945129 
	C31.130770,255.882843 33.542141,255.820541 36.878113,255.888229 
	C39.398689,255.800339 41.919270,255.712448 45.210308,255.727768 
	C47.028030,255.726532 48.845753,255.725296 51.454372,255.842850 
	C51.985741,255.816193 52.517105,255.789536 53.935532,255.852997 
	C56.018902,255.813431 58.102276,255.773880 61.067287,255.790527 
	C64.284248,255.741074 67.501213,255.691605 71.598824,255.803909 
	C73.384186,255.792709 75.169540,255.781509 77.765030,255.865051 
	C78.303513,255.806839 78.841995,255.748627 80.186676,255.750870 
	C82.348816,255.747696 84.510956,255.744507 87.605721,255.892258 
	C90.089867,255.849838 92.574005,255.807419 95.960075,255.851410 
	C98.080009,255.792511 100.199944,255.733612 103.207657,255.762054 
	C108.730301,255.767853 114.252937,255.773651 120.652588,255.898758 
	C128.062988,256.989258 125.796692,251.230591 126.509666,246.750763 
	C126.341316,241.166687 126.172966,235.582626 126.061203,229.112259 
	C126.036621,226.744949 126.012032,224.377655 126.013908,221.127243 
	C126.020546,218.773804 126.027184,216.420364 126.182678,213.202560 
	C126.223480,211.455215 126.264275,209.707870 126.677902,207.524643 
	C126.468811,206.684296 126.259727,205.843933 126.064583,204.131470 
	C126.022850,202.386749 125.981117,200.642029 126.159332,198.014938 
	C126.131805,194.621277 126.104271,191.227615 126.092644,186.981110 
	C126.070168,184.986465 126.047691,182.991837 126.463577,180.630905 
	C126.395264,179.782791 126.326942,178.934662 126.358879,177.238510 
	C126.136391,175.315140 125.913902,173.391769 125.867981,170.533707 
	C125.913315,168.022568 125.958649,165.511444 126.033653,162.162582 
	C126.056999,160.216461 126.080353,158.270340 126.303535,155.353745 
	C126.230148,149.513794 126.156769,143.673843 126.121170,136.947754 
	C125.948051,128.920761 125.948051,128.920761 118.889740,129.068130 
z"/>
<path fill="#CAC0AA" opacity="1.000000" stroke="none" 
	d="
M255.579773,198.667511 
	C255.670273,200.138580 255.760773,201.609665 255.367798,203.533386 
	C244.109985,204.761261 234.295715,201.577484 224.770325,196.927078 
	C223.611588,196.361374 221.296219,196.503937 220.409271,197.305588 
	C213.428436,203.615082 206.640289,210.139328 199.844742,216.651596 
	C196.493332,219.863312 197.225204,223.417267 199.062958,227.128143 
	C203.527588,236.143295 206.163498,245.623901 205.963852,255.774734 
	C204.128403,255.752808 202.292969,255.730881 200.049957,255.221771 
	C198.729538,246.145752 198.604111,237.360657 193.301346,229.077316 
	C190.451050,238.133942 186.814026,246.307281 188.388962,255.505249 
	C185.491974,255.618134 182.594986,255.731018 179.276428,255.481506 
	C178.968948,254.739105 179.083038,254.359085 179.530426,253.890991 
	C180.909637,250.803802 182.099380,247.845566 182.966187,244.795532 
	C184.130127,240.699936 184.476135,236.281601 186.175568,232.445877 
	C190.779434,222.054642 189.856918,217.134186 180.851135,209.698914 
	C175.265823,204.774490 169.835480,200.145294 164.881699,195.922348 
	C152.855087,201.959747 141.317688,204.696533 129.161102,204.935577 
	C129.148117,202.847260 129.135132,200.758942 129.548950,198.252777 
	C139.153671,198.339600 147.853302,196.576736 156.231277,193.288834 
	C156.237076,192.605057 156.242874,191.921280 156.248657,191.237503 
	C148.839844,189.833023 141.431030,188.428528 133.763306,186.760330 
	C132.042984,186.311905 130.581543,186.127197 129.120117,185.942490 
	C129.109055,184.586746 129.098007,183.230988 129.557373,181.450348 
	C141.271179,180.036057 151.504456,183.609314 161.708206,187.696472 
	C163.558609,188.437668 166.818329,188.210495 168.243591,187.016846 
	C174.078903,182.129700 179.688568,176.914825 184.912445,171.378235 
	C187.951050,168.157730 190.878891,164.118637 188.068832,159.285461 
	C182.585480,149.854340 181.816086,139.573013 182.024826,129.053055 
	C183.761993,129.057266 185.499146,129.061478 187.630219,129.550003 
	C187.236404,139.007492 189.565506,147.309570 193.455765,155.839951 
	C197.871994,147.101486 199.717453,138.394363 198.893921,129.132370 
	C200.956375,129.100937 203.018814,129.069504 205.531219,129.484070 
	C205.880356,131.747314 206.019562,133.616577 205.638901,135.373169 
	C203.520065,145.150467 201.201904,154.885208 199.165268,164.678864 
	C198.908218,165.915039 199.522461,167.744354 200.383698,168.730804 
	C204.412491,173.345291 208.460144,177.981415 212.899689,182.189240 
	C217.984589,187.008743 223.295013,189.323090 230.769836,185.554749 
	C236.317337,182.758041 243.118317,182.481964 249.316681,180.908646 
	C250.363251,180.643005 251.185303,179.492722 252.446259,178.740356 
	C253.667130,178.663177 254.552826,178.596802 255.438538,178.530426 
	C255.562286,181.129410 255.686050,183.728409 255.318939,186.760300 
	C247.008194,187.920685 239.162643,188.545059 232.042114,192.683334 
	C239.481903,196.887802 247.382812,198.369110 255.579773,198.667511 
M185.564346,204.960785 
	C188.305237,208.150620 191.046127,211.340469 193.787018,214.530304 
	C193.259186,213.577988 192.731369,212.625671 192.203552,211.673340 
	C199.675354,205.150620 207.147156,198.627884 214.272476,192.407639 
	C207.646393,186.008163 200.668915,179.269302 194.274185,173.093262 
	C187.684891,180.240860 180.921219,187.577606 174.183716,194.885971 
	C176.620834,197.028717 180.840744,200.738922 185.564346,204.960785 
z"/>
<path fill="#CBC0AA" opacity="1.000000" stroke="none" 
	d="
M125.939384,198.897308 
	C125.981117,200.642029 126.022850,202.386749 125.609436,204.566956 
	C115.223473,204.857239 105.941971,202.084366 96.743042,198.548172 
	C94.614456,197.729919 91.026718,198.249481 89.190636,199.610596 
	C84.546654,203.053253 79.961319,206.878036 76.360550,211.359665 
	C69.585625,219.791962 66.673882,221.538223 72.511002,230.269196 
	C73.393326,231.588913 73.526466,233.409500 74.058029,235.388763 
	C75.058243,242.442841 76.006569,249.106567 76.954903,255.770294 
	C75.169540,255.781509 73.384186,255.792709 71.187172,255.337158 
	C69.624077,246.900208 70.050133,238.534424 64.902870,230.798508 
	C61.103016,239.176987 59.158688,247.164093 60.185646,255.734314 
	C58.102276,255.773880 56.018902,255.813431 53.477776,255.391357 
	C54.345737,247.286469 55.671459,239.643234 57.046150,231.642960 
	C58.829235,227.350632 62.965931,223.574799 59.854706,219.002472 
	C54.362053,210.930374 47.941837,203.540924 39.213428,198.767548 
	C37.557129,197.861740 34.754345,197.942398 32.914196,198.667862 
	C23.018446,202.569107 12.996104,205.548920 2.203970,204.930389 
	C2.206991,203.151672 2.210011,201.372971 2.719592,199.211365 
	C11.655314,199.539688 19.397995,197.283600 26.929951,193.093597 
	C19.083080,189.486038 11.084010,187.121994 2.349620,188.263519 
	C2.272491,186.497787 2.195363,184.732071 2.586976,182.499451 
	C12.860694,181.281845 22.092363,183.964310 30.854662,187.728699 
	C37.084267,190.404999 40.815880,189.676697 44.012150,183.017334 
	C43.999737,183.002808 44.028843,183.024719 44.377914,182.980255 
	C47.496933,180.297501 50.266876,177.659195 53.332298,174.860611 
	C57.636848,170.066559 63.926769,165.820724 59.569099,158.631134 
	C53.969124,149.391907 54.311535,139.146515 53.073421,129.114548 
	C54.794720,129.094193 56.516022,129.073853 58.627983,129.528778 
	C59.109333,138.723099 60.215824,147.182144 65.098129,155.625748 
	C69.568802,146.615585 70.684151,138.049026 69.901718,129.141098 
	C71.632370,129.107132 73.363022,129.073166 75.543106,129.505432 
	C76.558998,141.125092 73.778816,151.544266 69.240105,161.625137 
	C68.645081,162.946732 68.229965,165.274445 68.939636,166.109726 
	C73.923676,171.975998 79.266060,177.535812 84.413017,183.266251 
	C89.742455,189.199844 95.068176,191.168365 102.708755,186.232620 
	C107.335243,183.243973 113.518829,182.665710 119.440926,181.003571 
	C121.927750,181.000793 123.976479,180.998993 126.025215,180.997192 
	C126.047691,182.991837 126.070168,184.986465 125.623138,187.448334 
	C117.287567,188.009445 109.559525,188.726318 101.459450,192.881226 
	C109.725700,197.457321 117.930687,197.794617 125.939384,198.897308 
M64.639160,172.371902 
	C57.889126,179.503586 51.139088,186.635269 46.277653,191.771561 
	C53.141685,198.807053 60.108044,205.947418 66.758293,212.763779 
	C72.035507,207.244263 78.849106,200.117813 84.699165,193.999146 
	C78.337715,186.900299 71.829147,179.637283 64.639160,172.371902 
z"/>
<path fill="#CBC1AA" opacity="1.000000" stroke="none" 
	d="
M186.913666,126.045280 
	C185.223221,126.048660 183.532761,126.052048 181.426331,125.614990 
	C183.182037,116.068130 185.173019,106.912834 187.616013,97.879791 
	C188.568100,94.359398 189.716736,91.211266 186.694382,88.202499 
	C181.095108,82.628433 175.451508,77.095261 169.982880,71.394897 
	C166.444656,67.706741 162.939636,67.627220 158.318268,69.616692 
	C149.059372,73.602585 139.406754,76.422722 129.112961,75.928398 
	C129.119812,74.160217 129.126663,72.392044 129.609497,70.236893 
	C138.300156,68.248802 147.206223,69.485031 155.151749,63.667053 
	C146.699097,59.686737 138.391190,57.987156 129.606415,58.461506 
	C129.421280,56.965950 129.236145,55.470394 129.514923,53.493073 
	C140.650711,52.298054 150.552994,55.266880 160.477448,58.772785 
	C163.106705,59.701599 167.245651,59.077206 169.588898,57.513657 
	C174.093094,54.508163 178.436005,50.796707 181.691162,46.502758 
	C185.627777,41.309891 191.621582,36.308735 186.965637,28.166588 
	C182.379074,20.145847 181.669678,11.191278 182.101379,2.123981 
	C183.523834,2.137928 184.946289,2.151874 186.729279,2.629013 
	C187.992493,10.811663 188.267715,18.695942 192.816666,25.868633 
	C197.550171,18.594736 198.035049,10.764430 198.452026,2.917536 
	C200.855804,3.018959 203.259598,3.120381 206.057770,3.379651 
	C206.452148,3.537498 206.385193,3.578875 206.040680,3.827765 
	C205.136215,5.386070 204.394226,6.649137 204.047104,8.012726 
	C202.310135,14.836082 200.608871,21.670286 199.039719,28.533749 
	C198.401703,31.324493 196.721909,35.327129 197.934586,36.840622 
	C203.264893,43.493290 209.339005,49.579441 215.420731,55.590462 
	C219.623474,59.744339 224.207581,60.551373 229.470871,56.592720 
	C231.693054,54.921345 235.104309,54.881241 237.921494,53.939354 
	C242.635742,52.363213 247.306976,50.658520 252.346497,48.936150 
	C253.410187,48.840572 254.123718,48.816772 254.837250,48.792969 
	C255.166397,51.324413 255.495544,53.855854 255.371674,56.861595 
	C252.778275,57.538887 250.638901,57.753319 248.497314,57.942749 
	C241.955536,58.521389 235.599152,59.685097 229.714722,63.603909 
	C237.820389,68.266815 246.291473,69.148964 254.986328,68.978325 
	C255.287643,71.016319 255.588974,73.054314 255.455719,75.530716 
	C244.718063,74.570999 234.377487,73.423119 224.885452,68.567856 
	C223.410019,67.813164 220.529282,67.568237 219.538727,68.462090 
	C212.476242,74.835114 205.547729,81.388489 199.041092,88.320473 
	C197.627914,89.826035 197.298096,93.289230 197.838699,95.518707 
	C199.773193,103.496513 202.242111,111.348259 204.659912,119.201187 
	C204.988968,120.269890 206.175476,121.074585 207.017212,122.396744 
	C207.051849,123.853989 207.034256,124.916008 207.016663,125.978043 
	C204.622192,126.006622 202.227707,126.035194 199.438583,125.614426 
	C198.036301,116.901253 197.478912,108.515526 192.556259,100.446487 
	C188.251419,108.991302 187.154053,117.420090 186.913666,126.045280 
M211.945801,61.605354 
	C205.423157,55.446045 198.900513,49.286732 194.918884,45.526890 
	C187.667877,52.232708 180.337280,59.012131 174.873932,64.064713 
	C180.356888,69.875916 187.239334,77.170387 193.660950,83.976440 
	C199.474228,78.387756 206.373596,71.821335 213.122726,65.103996 
	C213.533768,64.694901 212.753433,63.088799 211.945801,61.605354 
z"/>
<path fill="#CBC1AB" opacity="1.000000" stroke="none" 
	d="
M69.767967,2.297024 
	C71.185928,2.231958 72.603882,2.166893 74.487930,2.564765 
	C75.899406,13.257617 72.211693,22.504425 69.203140,31.973812 
	C68.395683,34.515270 68.908257,38.447842 70.440498,40.565659 
	C74.012596,45.502930 78.497787,49.797504 82.751785,54.218994 
	C88.109200,59.787342 94.102089,61.811871 101.470924,57.737736 
	C109.096535,53.521629 117.536316,52.816441 126.079308,52.977978 
	C126.076591,54.348186 126.073883,55.718399 125.625656,57.514473 
	C117.701302,59.492966 109.576675,58.858395 102.406784,64.201797 
	C110.115448,69.185623 118.206474,68.881706 125.947395,69.997482 
	C125.931526,72.319382 125.915665,74.641273 125.571274,77.187172 
	C125.242752,77.411171 125.259911,77.358643 125.106468,77.146210 
	C124.552986,77.079071 124.152946,77.224365 123.594635,77.499474 
	C123.178322,77.700562 122.917068,77.756943 122.368912,77.437714 
	C112.679924,74.208488 103.287872,71.294601 93.848701,68.542328 
	C92.913612,68.269676 91.433281,68.662430 90.643394,69.293655 
	C85.862267,73.114494 80.684952,76.625565 76.642105,81.137955 
	C71.386559,87.003906 66.196312,93.334633 71.210449,102.288986 
	C75.315758,109.620346 76.225266,117.794914 76.120567,126.090187 
	C74.340370,126.385185 72.560173,126.680176 70.423355,126.493904 
	C70.617104,117.409538 68.610725,109.412048 64.597130,101.091431 
	C60.168190,109.456657 59.249931,117.730240 58.754837,126.102112 
	C57.114624,126.076729 55.474411,126.051346 53.428360,125.584190 
	C54.272743,114.978409 55.039356,104.732658 60.092354,95.415932 
	C60.794788,94.120773 60.288754,91.207047 59.233845,90.079559 
	C52.795128,83.197899 46.079800,76.571533 39.358696,69.959663 
	C37.221264,67.856964 34.942829,68.077698 32.122257,69.413750 
	C22.677628,73.887497 12.750412,76.772163 2.174304,76.867188 
	C2.177379,74.783516 2.180453,72.699852 2.684474,70.247345 
	C11.435946,69.721970 19.533367,68.962959 27.873024,64.274124 
	C18.966875,59.962818 10.914489,58.439556 2.403384,59.304882 
	C2.303117,57.536331 2.202851,55.767776 2.527229,53.520454 
	C13.499367,54.123863 23.995869,55.350586 33.686485,60.222332 
	C34.718170,60.740990 36.579563,60.353504 37.736580,59.761753 
	C47.682026,54.675255 54.409245,46.292908 60.139679,37.056828 
	C60.839527,35.928837 60.345459,33.564899 59.648174,32.145344 
	C54.994530,22.671242 52.673168,12.655919 52.144386,2.171100 
	C54.205536,2.168269 56.266685,2.165438 58.698677,2.652136 
	C58.547546,11.653413 60.205372,19.677191 64.061592,27.208838 
	C64.616020,27.254135 65.170448,27.299435 65.724876,27.344732 
	C67.072571,18.995497 68.420273,10.646260 69.767967,2.297024 
M47.897316,60.473278 
	C46.242432,61.764782 44.587547,63.056290 42.932659,64.347794 
	C43.498070,63.927105 44.063477,63.506413 44.628887,63.085724 
	C51.463242,70.590828 58.297600,78.095932 64.827553,85.266754 
	C71.312752,78.539009 78.230469,71.362579 84.323517,65.041656 
	C77.283035,58.162380 70.231422,51.272217 63.225155,44.426369 
	C59.065544,48.816952 53.759212,54.417927 47.897316,60.473278 
z"/>
<path fill="#D9DCC5" opacity="1.000000" stroke="none" 
	d="
M181.649780,2.087997 
	C181.669678,11.191278 182.379074,20.145847 186.965637,28.166588 
	C191.621582,36.308735 185.627777,41.309891 181.691162,46.502758 
	C178.436005,50.796707 174.093094,54.508163 169.588898,57.513657 
	C167.245651,59.077206 163.106705,59.701599 160.477448,58.772785 
	C150.552994,55.266880 140.650711,52.298054 129.524521,53.036919 
	C129.066849,52.235901 129.063477,51.409279 129.529144,50.244404 
	C146.450607,49.362194 159.561478,42.173107 168.997864,28.975573 
	C174.570541,21.181751 179.056229,12.561713 177.607193,2.277731 
	C178.804184,2.202492 180.001190,2.127253 181.649780,2.087997 
z"/>
<path fill="#D9DDC7" opacity="1.000000" stroke="none" 
	d="
M51.703362,2.149734 
	C52.673168,12.655919 54.994530,22.671242 59.648174,32.145344 
	C60.345459,33.564899 60.839527,35.928837 60.139679,37.056828 
	C54.409245,46.292908 47.682026,54.675255 37.736580,59.761753 
	C36.579563,60.353504 34.718170,60.740990 33.686485,60.222332 
	C23.995869,55.350586 13.499367,54.123863 2.541485,53.077202 
	C2.125520,52.245346 2.119944,51.377979 2.594301,50.179176 
	C17.108883,49.925457 28.213240,43.691772 37.214035,33.470863 
	C44.990173,24.640623 49.461727,14.321166 49.516312,2.348099 
	C50.098320,2.274855 50.680332,2.201612 51.703362,2.149734 
z"/>
<path fill="#DADEC8" opacity="1.000000" stroke="none" 
	d="
M126.295090,52.782959 
	C117.536316,52.816441 109.096535,53.521629 101.470924,57.737736 
	C94.102089,61.811871 88.109200,59.787342 82.751785,54.218994 
	C78.497787,49.797504 74.012596,45.502930 70.440498,40.565659 
	C68.908257,38.447842 68.395683,34.515270 69.203140,31.973812 
	C72.211693,22.504425 75.899406,13.257617 74.914124,2.583816 
	C75.715881,2.117687 76.557549,2.095447 77.723419,2.514754 
	C78.359650,4.560415 78.784828,6.151817 78.966690,7.770554 
	C81.581245,31.042221 103.163116,49.089142 126.098206,50.021683 
	C126.235756,50.877102 126.373314,51.732521 126.295090,52.782959 
z"/>
<path fill="#D4D7BF" opacity="1.000000" stroke="none" 
	d="
M129.095001,76.340622 
	C139.406754,76.422722 149.059372,73.602585 158.318268,69.616692 
	C162.939636,67.627220 166.444656,67.706741 169.982880,71.394897 
	C175.451508,77.095261 181.095108,82.628433 186.694382,88.202499 
	C189.716736,91.211266 188.568100,94.359398 187.616013,97.879791 
	C185.173019,106.912834 183.182037,116.068130 181.003723,125.605835 
	C180.410492,126.126785 179.823898,126.216446 179.073639,125.677353 
	C178.397751,122.134239 178.094482,119.164597 177.340225,116.314301 
	C171.384933,93.809952 152.947937,79.302574 129.275360,78.386314 
	C129.209244,77.841827 129.143143,77.297340 129.095001,76.340622 
z"/>
<path fill="#C8CCB0" opacity="1.000000" stroke="none" 
	d="
M206.371567,255.808762 
	C206.163498,245.623901 203.527588,236.143295 199.062958,227.128143 
	C197.225204,223.417267 196.493332,219.863312 199.844742,216.651596 
	C206.640289,210.139328 213.428436,203.615082 220.409271,197.305588 
	C221.296219,196.503937 223.611588,196.361374 224.770325,196.927078 
	C234.295715,201.577484 244.109985,204.761261 255.320404,203.975006 
	C255.793701,204.798172 255.830948,205.632355 255.402161,206.804321 
	C248.181854,209.050705 241.111938,210.234421 234.735687,213.011093 
	C218.982666,219.871063 207.099030,239.699738 208.393661,255.609039 
	C207.855530,255.686951 207.317413,255.764877 206.371567,255.808762 
z"/>
<path fill="#D4D8C0" opacity="1.000000" stroke="none" 
	d="
M119.002838,181.004517 
	C113.518829,182.665710 107.335243,183.243973 102.708755,186.232620 
	C95.068176,191.168365 89.742455,189.199844 84.413017,183.266251 
	C79.266060,177.535812 73.923676,171.975998 68.939636,166.109726 
	C68.229965,165.274445 68.645081,162.946732 69.240105,161.625137 
	C73.778816,151.544266 76.558998,141.125092 75.975456,129.518677 
	C76.766785,129.063477 77.575203,129.061264 78.773315,129.524612 
	C79.539902,133.428421 79.662292,136.917389 80.336182,140.296387 
	C83.918007,158.256500 101.955322,175.846863 118.996544,178.522736 
	C118.999451,179.586105 119.001144,180.295303 119.002838,181.004517 
z"/>
<path fill="#D1D5BA" opacity="1.000000" stroke="none" 
	d="
M181.625793,129.033035 
	C181.816086,139.573013 182.585480,149.854340 188.068832,159.285461 
	C190.878891,164.118637 187.951050,168.157730 184.912445,171.378235 
	C179.688568,176.914825 174.078903,182.129700 168.243591,187.016846 
	C166.818329,188.210495 163.558609,188.437668 161.708206,187.696472 
	C151.504456,183.609314 141.271179,180.036057 129.577271,181.043930 
	C129.126389,180.512421 129.126068,179.962448 129.628204,179.034332 
	C156.997223,178.575363 179.630920,155.494965 178.834991,129.113205 
	C179.632248,129.079819 180.429504,129.046417 181.625793,129.033035 
z"/>
<path fill="#D7DBC5" opacity="1.000000" stroke="none" 
	d="
M2.156881,77.326843 
	C12.750412,76.772163 22.677628,73.887497 32.122257,69.413750 
	C34.942829,68.077698 37.221264,67.856964 39.358696,69.959663 
	C46.079800,76.571533 52.795128,83.197899 59.233845,90.079559 
	C60.288754,91.207047 60.794788,94.120773 60.092354,95.415932 
	C55.039356,104.732658 54.272743,114.978409 53.018139,125.565811 
	C52.552460,125.994255 52.091160,125.999298 51.200005,125.598373 
	C48.360268,117.879837 47.059170,109.934387 43.318661,103.381363 
	C34.470436,87.880096 20.963943,79.116219 2.451280,79.591492 
	C2.347339,78.989822 2.243398,78.388161 2.156881,77.326843 
z"/>
<path fill="#D6D9BE" opacity="1.000000" stroke="none" 
	d="
M206.964966,122.001526 
	C206.175476,121.074585 204.988968,120.269890 204.659912,119.201187 
	C202.242111,111.348259 199.773193,103.496513 197.838699,95.518707 
	C197.298096,93.289230 197.627914,89.826035 199.041092,88.320473 
	C205.547729,81.388489 212.476242,74.835114 219.538727,68.462090 
	C220.529282,67.568237 223.410019,67.813164 224.885452,68.567856 
	C234.377487,73.423119 244.718063,74.570999 255.438080,75.942314 
	C255.689148,76.511711 255.523224,77.107918 254.653717,77.907288 
	C248.703125,79.167824 243.167542,79.497810 238.271637,81.440147 
	C229.214737,85.033264 220.815231,90.279793 216.169998,99.178505 
	C212.392075,106.415771 209.981750,114.366943 206.964966,122.001526 
z"/>
<path fill="#D8DCC5" opacity="1.000000" stroke="none" 
	d="
M76.478989,126.068481 
	C76.225266,117.794914 75.315758,109.620346 71.210449,102.288986 
	C66.196312,93.334633 71.386559,87.003906 76.642105,81.137955 
	C80.684952,76.625565 85.862267,73.114494 90.643394,69.293655 
	C91.433281,68.662430 92.913612,68.269676 93.848701,68.542328 
	C103.287872,71.294601 112.679924,74.208488 122.032761,77.642197 
	C121.229919,78.540497 120.505943,79.075020 119.725296,79.177383 
	C96.896812,82.171021 79.060951,103.195786 79.000519,126.003067 
	C78.279488,126.017639 77.558449,126.032211 76.478989,126.068481 
z"/>
<path fill="#D0D3B9" opacity="1.000000" stroke="none" 
	d="
M252.111099,178.751175 
	C251.185303,179.492722 250.363251,180.643005 249.316681,180.908646 
	C243.118317,182.481964 236.317337,182.758041 230.769836,185.554749 
	C223.295013,189.323090 217.984589,187.008743 212.899689,182.189240 
	C208.460144,177.981415 204.412491,173.345291 200.383698,168.730804 
	C199.522461,167.744354 198.908218,165.915039 199.165268,164.678864 
	C201.201904,154.885208 203.520065,145.150467 205.638901,135.373169 
	C206.019562,133.616577 205.880356,131.747314 205.972168,129.504242 
	C206.480042,129.083649 206.996918,129.088898 207.880142,129.586517 
	C208.398438,133.054703 208.187454,136.102783 208.763046,138.994263 
	C211.805283,154.277313 221.070496,165.060104 234.047531,173.455093 
	C235.141388,174.162659 236.148804,174.536606 237.537903,174.897583 
	C240.934631,175.736664 243.949661,176.588684 247.062805,177.720856 
	C248.125381,177.936783 249.089859,177.872543 250.345718,177.837433 
	C251.128433,178.161423 251.619766,178.456299 252.111099,178.751175 
z"/>
<path fill="#D0D4BA" opacity="1.000000" stroke="none" 
	d="
M74.006149,234.998413 
	C73.526466,233.409500 73.393326,231.588913 72.511002,230.269196 
	C66.673882,221.538223 69.585625,219.791962 76.360550,211.359665 
	C79.961319,206.878036 84.546654,203.053253 89.190636,199.610596 
	C91.026718,198.249481 94.614456,197.729919 96.743042,198.548172 
	C105.941971,202.084366 115.223473,204.857239 125.602470,205.003021 
	C126.259727,205.843933 126.468811,206.684296 126.015182,207.739807 
	C118.205353,207.515381 111.730957,209.633194 105.468727,212.895355 
	C95.846138,217.907990 89.567139,226.029068 83.828064,235.082260 
	C80.279060,235.040909 77.142601,235.019669 74.006149,234.998413 
z"/>
<path fill="#CDD1BA" opacity="1.000000" stroke="none" 
	d="
M2.153860,205.354889 
	C12.996104,205.548920 23.018446,202.569107 32.914196,198.667862 
	C34.754345,197.942398 37.557129,197.861740 39.213428,198.767548 
	C47.941837,203.540924 54.362053,210.930374 59.854706,219.002472 
	C62.965931,223.574799 58.829235,227.350632 56.656029,231.641907 
	C55.414352,231.913742 54.405750,232.111694 53.842293,231.700165 
	C49.886406,228.810989 48.436996,230.704697 47.822094,234.626129 
	C47.735100,235.180878 47.116165,235.652237 46.485611,235.942932 
	C44.141823,232.560120 42.330013,229.168579 39.921867,226.272980 
	C30.165466,214.541748 18.090784,207.456375 2.278021,208.324799 
	C2.219931,207.476334 2.161840,206.627853 2.153860,205.354889 
z"/>
<path fill="#D0D2B8" opacity="1.000000" stroke="none" 
	d="
M129.104340,205.318420 
	C141.317688,204.696533 152.855087,201.959747 164.881699,195.922348 
	C169.835480,200.145294 175.265823,204.774490 180.803314,210.060501 
	C180.438080,214.057419 180.632050,217.690735 179.324173,220.663223 
	C177.700577,224.353256 174.834290,227.496521 172.235931,230.640030 
	C161.437973,215.681442 147.748108,207.020355 129.024734,208.012421 
	C129.032349,207.242035 129.039948,206.471664 129.104340,205.318420 
z"/>
<path fill="#D2D5BB" opacity="1.000000" stroke="none" 
	d="
M129.098099,172.141937 
	C129.085098,169.377945 129.072098,166.613953 129.493225,163.409836 
	C137.518143,163.901443 145.414261,155.315109 145.856354,149.322266 
	C146.086975,146.196304 146.924423,145.225311 150.130890,144.817520 
	C158.012558,143.815155 163.811615,136.860596 163.938080,129.114227 
	C166.432861,129.115509 168.927643,129.116791 171.882889,129.605591 
	C171.717041,133.816925 171.486923,137.661209 170.397385,141.244141 
	C165.033035,158.884628 149.239319,170.589127 129.098099,172.141937 
z"/>
<path fill="#D2D6BE" opacity="1.000000" stroke="none" 
	d="
M126.003983,163.000305 
	C125.958649,165.511444 125.913315,168.022568 125.369194,170.966675 
	C100.543152,169.145767 86.146538,151.152023 85.592567,129.294937 
	C88.104630,129.212173 90.616699,129.129410 93.579391,129.463623 
	C94.613358,137.717697 100.703979,144.207565 108.508148,144.921127 
	C110.990654,145.148117 111.855064,145.913513 112.095406,148.446884 
	C112.802254,155.897446 118.560677,161.736038 126.003983,163.000305 
z"/>
<path fill="#C4C8AC" opacity="1.000000" stroke="none" 
	d="
M255.446167,213.518982 
	C255.576996,216.044388 255.707809,218.569809 255.452255,221.613464 
	C247.925369,224.707352 242.644196,228.804016 241.788879,237.107834 
	C241.672531,238.237289 239.532990,239.544220 238.076324,240.084930 
	C230.600128,242.860123 224.189178,246.449936 224.014282,255.730743 
	C221.203644,255.751297 218.392990,255.771851 215.177795,255.321045 
	C215.188629,252.906433 215.729889,250.980408 215.998978,249.017090 
	C217.749039,236.248108 224.817902,226.752472 235.509918,220.506012 
	C241.478760,217.018921 248.757614,215.774185 255.446167,213.518982 
z"/>
<path fill="#D3D7C1" opacity="1.000000" stroke="none" 
	d="
M2.283489,172.367325 
	C2.381392,169.527084 2.479295,166.686844 3.149652,163.441650 
	C9.932840,162.626022 13.597775,159.202988 15.789681,153.505295 
	C17.064314,150.192001 17.436623,146.165085 22.210087,145.040787 
	C30.645807,143.053864 34.433411,138.007950 34.901905,129.151764 
	C37.418510,129.147888 39.935112,129.144012 42.870651,129.639038 
	C43.023159,133.086472 43.199894,136.158295 42.419403,138.963821 
	C36.762524,159.297852 23.064104,170.125748 2.283489,172.367325 
z"/>
<path fill="#D9DDC7" opacity="1.000000" stroke="none" 
	d="
M129.307877,43.464790 
	C129.215820,40.602753 129.123749,37.740715 129.455109,34.432060 
	C136.819702,33.769840 141.888107,30.987457 143.925705,23.899191 
	C145.300125,19.117887 147.167236,15.473054 153.286880,14.725945 
	C159.099258,14.016350 161.951599,8.744375 161.916382,2.103855 
	C164.766602,2.120206 167.616837,2.136557 170.870300,2.635049 
	C170.170105,18.684849 162.616409,30.402330 148.976913,37.504791 
	C143.005295,40.614376 135.898956,41.544815 129.307877,43.464790 
z"/>
<path fill="#D4D8C0" opacity="1.000000" stroke="none" 
	d="
M52.684383,129.075348 
	C54.311535,139.146515 53.969124,149.391907 59.569099,158.631134 
	C63.926769,165.820724 57.636848,170.066559 52.926811,174.853668 
	C46.339672,174.455215 45.316231,178.874893 44.028843,183.024719 
	C44.028843,183.024719 43.999737,183.002808 43.651772,182.962585 
	C40.093353,180.513580 36.882908,178.104782 34.030910,175.964920 
	C34.030910,172.957489 34.030910,170.021942 34.164089,166.778473 
	C44.979153,156.275452 50.523350,143.931198 49.958664,129.031479 
	C50.737556,129.033035 51.516453,129.034607 52.684383,129.075348 
z"/>
<path fill="#D3D6BE" opacity="1.000000" stroke="none" 
	d="
M129.115265,94.074524 
	C129.108597,91.585678 129.101913,89.096832 129.597900,86.188118 
	C134.486038,86.404076 139.076294,86.418732 143.220856,87.785210 
	C159.575302,93.177330 173.007599,110.492798 171.034760,126.008049 
	C168.967697,126.002342 166.900620,125.996628 164.351807,125.612305 
	C161.762054,118.162956 157.668869,113.003357 149.936417,112.142204 
	C146.975235,111.812408 146.316498,110.821503 145.808685,107.992554 
	C144.198776,99.024033 138.003891,94.123390 129.115265,94.074524 
z"/>
<path fill="#D5DAC4" opacity="1.000000" stroke="none" 
	d="
M43.306316,125.824219 
	C41.152874,125.875710 38.999432,125.927208 36.348289,125.606995 
	C33.049133,117.776016 28.854998,112.047035 19.892603,111.782295 
	C19.212221,111.762207 18.312643,110.004173 17.976376,108.911934 
	C14.665474,98.157631 10.910344,94.837578 2.151484,95.108887 
	C2.145099,92.260437 2.138713,89.411995 2.614466,86.188919 
	C25.040396,86.943718 43.008720,103.830368 43.306316,125.824219 
z"/>
<path fill="#DADEC8" opacity="1.000000" stroke="none" 
	d="
M126.036682,34.054020 
	C126.013527,36.471649 125.990372,38.889278 125.489304,41.785774 
	C122.217911,42.006538 119.310661,42.159595 116.649529,41.423233 
	C100.090561,36.841164 86.111473,22.490465 85.396461,2.433432 
	C87.960518,2.481267 90.524567,2.529102 93.549545,3.120704 
	C95.818680,11.181910 100.482635,15.313020 108.253990,16.169832 
	C109.277458,16.282675 110.690750,18.075115 110.926216,19.283918 
	C112.614456,27.950785 117.147247,32.511471 126.036682,34.054020 
z"/>
<path fill="#D3D7C1" opacity="1.000000" stroke="none" 
	d="
M125.926399,85.859009 
	C125.955307,88.276108 125.984222,90.693207 125.614136,93.558685 
	C117.381691,94.885193 114.118515,100.605621 112.147659,107.098587 
	C111.142830,110.408989 109.854156,112.086830 106.313454,112.464294 
	C98.371414,113.310959 95.396957,118.974594 94.035362,125.965050 
	C91.573555,125.956512 89.111755,125.947975 86.162231,125.478989 
	C87.533562,103.287506 105.881920,85.232819 125.926399,85.859009 
z"/>
<path fill="#D0D3B9" opacity="1.000000" stroke="none" 
	d="
M214.725311,129.196472 
	C217.191589,129.143677 219.657883,129.090866 222.582397,129.443558 
	C224.289520,138.266769 229.734863,142.574387 237.409576,145.020721 
	C239.140625,145.572495 240.887558,147.213562 241.839737,148.819946 
	C243.542480,151.692581 244.646362,154.920181 245.998596,158.402771 
	C245.311218,161.976257 244.625839,165.146362 243.556961,168.257202 
	C228.404129,163.557999 214.625504,148.666656 214.725311,129.196472 
z"/>
<path fill="#63716A" opacity="1.000000" stroke="none" 
	d="
M214.324966,129.142517 
	C214.625504,148.666656 228.404129,163.557999 243.801483,168.512360 
	C248.101288,169.755814 251.773056,170.684845 255.444839,171.613876 
	C255.522217,173.674423 255.599609,175.734955 255.557755,178.162964 
	C254.552826,178.596802 253.667130,178.663177 252.446259,178.740356 
	C251.619766,178.456299 251.128433,178.161423 250.095612,177.621841 
	C248.690979,177.398331 247.827850,177.419525 246.964706,177.440704 
	C243.949661,176.588684 240.934631,175.736664 237.364227,174.623672 
	C235.859604,173.948975 234.910339,173.535233 233.961090,173.121475 
	C221.070496,165.060104 211.805283,154.277313 208.763046,138.994263 
	C208.187454,136.102783 208.398438,133.054703 208.264252,129.639465 
	C210.162888,129.162888 212.043762,129.125717 214.324966,129.142517 
z"/>
<path fill="#D0D2B8" opacity="1.000000" stroke="none" 
	d="
M126.033821,214.066925 
	C126.027184,216.420364 126.020546,218.773804 125.649734,221.612244 
	C119.734879,224.630859 114.872154,227.668854 113.520546,234.402924 
	C113.118958,236.403748 111.692596,238.768845 110.016304,239.824280 
	C106.610725,241.968506 102.714584,243.333588 98.684280,244.834625 
	C95.400513,244.066879 92.453102,243.484299 89.536201,242.509094 
	C92.620155,236.908188 95.075378,231.209229 98.857391,226.598602 
	C105.739105,218.209167 115.365700,214.767105 126.033821,214.066925 
z"/>
<path fill="#DADEC8" opacity="1.000000" stroke="none" 
	d="
M2.423057,43.586437 
	C2.474183,40.685566 2.525309,37.784695 3.156132,34.472435 
	C5.815042,33.702339 7.894253,33.343632 10.375193,32.989883 
	C18.252478,33.277184 20.314602,25.728102 25.272732,23.407579 
	C24.417299,20.631556 23.716951,18.358805 23.370218,16.025394 
	C30.391167,13.773587 33.975544,9.317786 33.870434,2.151794 
	C36.461655,2.176781 39.052879,2.201769 41.979595,2.727848 
	C40.794830,9.066442 40.292290,15.463102 37.476208,20.588652 
	C34.490517,26.022892 29.306908,30.249550 24.720364,35.008736 
	C23.583397,35.708668 22.809273,36.403461 21.823647,37.358360 
	C19.787495,38.521568 17.962849,39.424671 15.985570,40.075317 
	C15.221040,40.164555 14.609145,40.506245 13.690533,41.101864 
	C9.730229,42.099339 6.076643,42.842888 2.423057,43.586437 
z"/>
<path fill="#63716B" opacity="1.000000" stroke="none" 
	d="
M49.543278,129.042831 
	C50.523350,143.931198 44.979153,156.275452 33.853302,166.902161 
	C24.350578,174.762085 14.383249,179.682617 2.249331,178.623032 
	C2.247338,176.796082 2.245345,174.969131 2.263421,172.754761 
	C23.064104,170.125748 36.762524,159.297852 42.419403,138.963821 
	C43.199894,136.158295 43.023159,133.086472 43.340794,129.706955 
	C45.303967,129.202057 47.215927,129.128128 49.543278,129.042831 
z"/>
<path fill="#63716A" opacity="1.000000" stroke="none" 
	d="
M129.071564,172.550461 
	C149.239319,170.589127 165.033035,158.884628 170.397385,141.244141 
	C171.486923,137.661209 171.717041,133.816925 172.349091,129.670624 
	C174.243454,129.176300 176.132065,129.104462 178.427841,129.072906 
	C179.630920,155.494965 156.997223,178.575363 129.709229,178.629669 
	C129.206879,176.721756 129.125946,174.840378 129.071564,172.550461 
z"/>
<path fill="#63716A" opacity="1.000000" stroke="none" 
	d="
M2.259101,208.708862 
	C18.090784,207.456375 30.165466,214.541748 39.921867,226.272980 
	C42.330013,229.168579 44.141823,232.560120 46.570572,236.307037 
	C48.163406,243.168289 49.413441,249.446182 50.663475,255.724060 
	C48.845753,255.725296 47.028030,255.726532 44.682449,255.316895 
	C42.882450,250.579315 41.610310,246.252625 40.320801,241.548035 
	C33.092411,224.591324 20.454662,215.703629 2.431608,214.448318 
	C2.367799,212.663193 2.303991,210.878052 2.259101,208.708862 
z"/>
<path fill="#63716A" opacity="1.000000" stroke="none" 
	d="
M129.017181,208.426300 
	C147.748108,207.020355 161.437973,215.681442 172.305099,230.940216 
	C176.455826,238.503036 179.145065,245.857010 179.197144,253.979065 
	C179.083038,254.359085 178.968948,254.739105 178.798615,255.410736 
	C176.917068,255.708084 175.091751,255.713837 172.814209,255.253906 
	C171.996841,252.403732 171.631729,250.019272 171.240295,247.255417 
	C169.916138,243.754074 168.618332,240.632111 167.307449,237.160858 
	C166.210861,234.979996 165.318787,232.997452 164.012924,231.341171 
	C155.179367,220.137177 143.922424,213.844467 129.303131,214.558456 
	C129.205292,212.652359 129.107452,210.746277 129.017181,208.426300 
z"/>
<path fill="#62716A" opacity="1.000000" stroke="none" 
	d="
M206.385193,3.578876 
	C206.385193,3.578875 206.452148,3.537498 206.493607,3.533583 
	C208.592987,3.101564 210.650894,2.673460 213.270935,2.617808 
	C215.988449,9.322398 218.143875,15.654536 220.374771,22.299911 
	C229.031189,34.867332 241.121002,40.885338 255.713837,42.454857 
	C255.464432,44.332245 255.215027,46.209633 254.901428,48.439995 
	C254.123718,48.816772 253.410187,48.840572 251.930817,48.874001 
	C235.632736,47.035389 223.116455,39.697556 215.094757,26.441492 
	C210.941025,19.577366 209.210480,11.246882 206.385193,3.578876 
z"/>
<path fill="#62716A" opacity="1.000000" stroke="none" 
	d="
M126.010780,85.429977 
	C105.881920,85.232819 87.533562,103.287506 85.700584,125.433899 
	C83.761169,125.977455 81.795670,126.105659 79.415344,126.118469 
	C79.060951,103.195786 96.896812,82.171021 119.725296,79.177383 
	C120.505943,79.075020 121.229919,78.540497 122.316452,78.002922 
	C122.917068,77.756943 123.178322,77.700562 123.973358,77.585739 
	C124.760208,77.481018 125.010056,77.419830 125.259911,77.358643 
	C125.259911,77.358643 125.242752,77.411171 125.221603,77.432655 
	C125.498688,79.969742 125.796921,82.485352 126.010780,85.429977 
z"/>
<path fill="#63716B" opacity="1.000000" stroke="none" 
	d="
M129.240356,43.849197 
	C135.898956,41.544815 143.005295,40.614376 148.976913,37.504791 
	C162.616409,30.402330 170.170105,18.684849 171.345612,2.702969 
	C173.223785,2.272745 175.029892,2.256741 177.221588,2.259234 
	C179.056229,12.561713 174.570541,21.181751 168.997864,28.975573 
	C159.561478,42.173107 146.450607,49.362194 129.572510,49.833900 
	C129.155487,47.918964 129.164154,46.076283 129.240356,43.849197 
z"/>
<path fill="#63716B" opacity="1.000000" stroke="none" 
	d="
M85.014420,2.353379 
	C86.111473,22.490465 100.090561,36.841164 116.649529,41.423233 
	C119.310661,42.159595 122.217911,42.006538 125.454079,42.240189 
	C126.013573,44.528076 126.130371,46.840412 126.172684,49.587219 
	C103.163116,49.089142 81.581245,31.042221 78.966690,7.770554 
	C78.784828,6.151817 78.359650,4.560415 78.141212,2.555529 
	C80.367325,2.194279 82.499855,2.233803 85.014420,2.353379 
z"/>
<path fill="#63716B" opacity="1.000000" stroke="none" 
	d="
M171.291229,126.292801 
	C173.007599,110.492798 159.575302,93.177330 143.220856,87.785210 
	C139.076294,86.418732 134.486038,86.404076 129.663208,85.723618 
	C129.203568,83.514175 129.181320,81.349365 129.217224,78.785439 
	C152.947937,79.302574 171.384933,93.809952 177.340225,116.314301 
	C178.094482,119.164597 178.397751,122.134239 178.933502,125.448563 
	C176.487259,126.091553 174.017471,126.334557 171.291229,126.292801 
z"/>
<path fill="#627069" opacity="1.000000" stroke="none" 
	d="
M255.557877,213.147507 
	C248.757614,215.774185 241.478760,217.018921 235.509918,220.506012 
	C224.817902,226.752472 217.749039,236.248108 215.998978,249.017090 
	C215.729889,250.980408 215.188629,252.906433 214.710754,255.239243 
	C212.821030,255.660339 210.993790,255.691910 208.780121,255.666260 
	C207.099030,239.699738 218.982666,219.871063 234.735687,213.011093 
	C241.111938,210.234421 248.181854,209.050705 255.325516,207.215271 
	C255.699814,209.117645 255.684708,210.946838 255.557877,213.147507 
z"/>
<path fill="#62716A" opacity="1.000000" stroke="none" 
	d="
M16.138203,40.327774 
	C17.962849,39.424671 19.787495,38.521568 22.149586,37.336708 
	C23.485754,36.371166 24.284479,35.687382 25.083202,35.003601 
	C29.306908,30.249550 34.490517,26.022892 37.476208,20.588652 
	C40.292290,15.463102 40.794830,9.066442 42.458862,2.834709 
	C44.651051,2.381377 46.699471,2.322276 49.132099,2.305636 
	C49.461727,14.321166 44.990173,24.640623 37.214035,33.470863 
	C28.213240,43.691772 17.108883,49.925457 2.654126,49.750439 
	C2.248907,47.875813 2.263795,46.098492 2.350870,43.953804 
	C6.076643,42.842888 9.730229,42.099339 13.978496,41.129005 
	C15.094851,40.710743 15.616526,40.519257 16.138203,40.327774 
z"/>
<path fill="#63716A" opacity="1.000000" stroke="none" 
	d="
M207.017212,122.396744 
	C209.981750,114.366943 212.392075,106.415771 216.169998,99.178505 
	C220.815231,90.279793 229.214737,85.033264 238.271637,81.440147 
	C243.167542,79.497810 248.703125,79.167824 254.385971,78.082405 
	C255.117432,79.956665 255.413055,81.858978 255.292480,84.224113 
	C252.660599,84.862427 250.444916,85.037918 247.829559,85.170982 
	C245.911331,85.660057 244.392776,86.191551 242.550934,86.877899 
	C239.893326,88.090042 237.559036,89.147331 234.909332,90.184029 
	C234.008026,90.661858 233.422119,91.160278 232.647919,91.926003 
	C231.089157,93.321213 229.718689,94.449120 228.055847,95.704277 
	C218.855728,103.959465 214.755005,114.265419 214.045609,126.107941 
	C211.986969,126.144005 209.928345,126.180077 207.443176,126.097092 
	C207.034256,124.916008 207.051849,123.853989 207.017212,122.396744 
z"/>
<path fill="#63716B" opacity="1.000000" stroke="none" 
	d="
M85.205254,129.198578 
	C86.146538,151.152023 100.543152,169.145767 125.280914,171.434021 
	C125.913902,173.391769 126.136391,175.315140 125.928513,177.736938 
	C123.330544,178.213104 121.162941,178.190826 118.995331,178.168549 
	C101.955322,175.846863 83.918007,158.256500 80.336182,140.296387 
	C79.662292,136.917389 79.539902,133.428421 79.176239,129.553467 
	C81.065613,129.111908 82.941780,129.107056 85.205254,129.198578 
z"/>
<path fill="#63716A" opacity="1.000000" stroke="none" 
	d="
M126.108246,213.634735 
	C115.365700,214.767105 105.739105,218.209167 98.857391,226.598602 
	C95.075378,231.209229 92.620155,236.908188 89.273712,242.737457 
	C88.211494,247.486084 87.442299,251.613708 86.673096,255.741318 
	C84.510956,255.744507 82.348816,255.747696 79.752228,255.338898 
	C80.958733,248.318741 82.599678,241.710556 84.240616,235.102371 
	C89.567139,226.029068 95.846138,217.907990 105.468727,212.895355 
	C111.730957,209.633194 118.205353,207.515381 125.828766,207.957764 
	C126.264275,209.707870 126.223480,211.455215 126.108246,213.634735 
z"/>
<path fill="#CCC0A9" opacity="1.000000" stroke="none" 
	d="
M129.601730,240.105652 
	C129.430573,234.395920 129.259430,228.686172 129.507050,222.500244 
	C136.965469,222.481400 144.553253,227.649796 145.637405,234.248154 
	C146.542221,239.755157 149.364365,241.042236 154.157806,241.306488 
	C157.212219,244.399429 160.104584,247.200180 163.148895,250.342896 
	C163.522049,252.380066 163.743256,254.075287 163.964447,255.770493 
	C161.856232,255.802505 159.748001,255.834534 157.236511,255.456940 
	C155.132034,249.885941 151.492661,247.183960 146.613678,248.060196 
	C142.566025,248.787125 138.827957,250.303436 139.352890,255.640259 
	C128.985077,256.574310 128.976105,256.574310 128.968781,246.541336 
	C128.967834,245.235733 129.115753,243.930038 129.574615,242.660248 
	C130.147598,244.308380 130.340698,245.920624 130.524063,247.451599 
	C136.269363,248.251297 138.442520,246.686218 139.346252,241.366013 
	C140.313950,235.669250 137.401489,231.869965 130.531677,230.403656 
	C130.218521,233.670807 129.910126,236.888229 129.601730,240.105652 
z"/>
<path fill="#63716B" opacity="1.000000" stroke="none" 
	d="
M43.715096,125.937012 
	C43.008720,103.830368 25.040396,86.943718 2.687661,85.715561 
	C2.280676,83.850670 2.282633,82.084518 2.367935,79.954933 
	C20.963943,79.116219 34.470436,87.880096 43.318661,103.381363 
	C47.059170,109.934387 48.360268,117.879837 50.854359,125.584579 
	C48.667004,126.001122 46.395439,126.025459 43.715096,125.937012 
z"/>
<path fill="#CBCFB9" opacity="1.000000" stroke="none" 
	d="
M2.318907,214.930359 
	C20.454662,215.703629 33.092411,224.591324 39.896961,241.561096 
	C32.326965,240.301392 25.163445,238.650696 17.987022,236.634857 
	C14.632262,229.602692 10.955410,223.334930 2.242088,223.069748 
	C2.230128,220.517303 2.218167,217.964844 2.318907,214.930359 
z"/>
<path fill="#CDD0B5" opacity="1.000000" stroke="none" 
	d="
M153.995743,241.014282 
	C149.364365,241.042236 146.542221,239.755157 145.637405,234.248154 
	C144.553253,227.649796 136.965469,222.481400 129.536102,222.036713 
	C129.143311,219.866211 129.140228,217.683044 129.220139,215.029160 
	C143.922424,213.844467 155.179367,220.137177 164.012924,231.341171 
	C165.318787,232.997452 166.210861,234.979996 167.075439,237.476227 
	C165.671707,238.139526 164.148117,238.616959 163.358002,238.057861 
	C158.796722,234.830246 156.049515,236.664505 153.995743,241.014282 
z"/>
<path fill="#D4D7BE" opacity="1.000000" stroke="none" 
	d="
M255.789642,41.970680 
	C241.121002,40.885338 229.031189,34.867332 220.724457,22.289320 
	C225.250092,20.464165 229.382980,18.813957 231.394745,14.055470 
	C236.366806,14.791577 239.476654,15.659507 240.945450,21.713282 
	C243.202347,31.015427 248.761658,34.042858 255.812759,32.902645 
	C255.830307,35.763927 255.847855,38.625214 255.789642,41.970680 
z"/>
<path fill="#CCBEA7" opacity="1.000000" stroke="none" 
	d="
M163.498611,129.084503 
	C163.811615,136.860596 158.012558,143.815155 150.130890,144.817520 
	C146.924423,145.225311 146.086975,146.196304 145.856354,149.322266 
	C145.414261,155.315109 137.518143,163.901443 129.526337,162.951385 
	C129.131485,160.800781 129.137650,158.668488 129.610504,156.196899 
	C132.170090,155.163315 134.561600,154.894363 136.289993,153.680908 
	C139.332840,151.544601 140.479828,145.290939 138.367294,142.374298 
	C136.209320,139.394882 133.985199,135.690948 129.166718,138.189758 
	C129.127884,137.861404 129.055618,137.533096 129.055054,137.204666 
	C129.038742,127.724632 128.215485,129.103714 137.651886,129.443604 
	C140.495178,138.245743 146.790039,141.336212 153.006073,136.623749 
	C155.023941,135.093964 155.611008,131.676895 156.852524,129.123062 
	C158.921402,129.100311 160.990265,129.077560 163.498611,129.084503 
z"/>
<path fill="#CDBCA6" opacity="1.000000" stroke="none" 
	d="
M129.087585,94.515503 
	C138.003891,94.123390 144.198776,99.024033 145.808685,107.992554 
	C146.316498,110.821503 146.975235,111.812408 149.936417,112.142204 
	C157.668869,113.003357 161.762054,118.162956 163.909363,125.588615 
	C161.518158,126.217934 159.087601,126.492325 156.348907,126.179955 
	C155.042557,120.504478 151.303329,118.197189 146.771042,118.306427 
	C142.203659,118.416496 138.777115,121.152069 137.824692,126.083427 
	C137.016830,126.077454 136.191223,125.959290 135.403992,126.083763 
	C130.414627,126.872711 128.112793,124.973885 129.433731,119.421249 
	C135.249603,118.898346 139.262787,115.175018 139.100876,110.483971 
	C138.929642,105.522766 134.580795,101.879303 129.086578,102.093964 
	C129.077682,99.714798 129.068787,97.335640 129.087585,94.515503 
z"/>
<path fill="#CDBFA8" opacity="1.000000" stroke="none" 
	d="
M255.819427,93.094208 
	C255.652496,95.265694 255.485550,97.437180 254.700317,99.961708 
	C252.593399,101.602837 250.220963,102.654312 249.799622,104.228127 
	C248.915329,107.531204 248.483276,111.186394 248.938126,114.552063 
	C249.393875,117.924446 252.361130,119.103691 255.730148,118.731087 
	C255.730148,120.972252 255.730148,123.213417 255.730148,125.583031 
	C253.052628,125.968689 250.818420,126.290497 248.342346,126.039490 
	C246.843979,121.280319 243.870728,118.352562 239.743225,118.320068 
	C235.084564,118.283394 231.287613,120.759377 230.152908,125.895477 
	C228.056046,125.950760 225.959167,126.006035 223.421692,125.651215 
	C222.989105,124.161087 222.997131,123.081047 223.251114,121.782860 
	C223.672852,120.717155 223.848633,119.869598 224.013123,119.012497 
	C224.001831,119.002953 224.021835,119.016815 224.302277,118.865303 
	C225.067734,117.815071 225.552719,116.916344 226.294098,115.887772 
	C227.038193,115.184341 227.525909,114.610748 228.388367,113.982124 
	C230.472931,113.337837 232.143463,112.553986 233.900635,112.199486 
	C237.660492,111.440956 240.006027,109.985306 240.896118,105.612793 
	C242.476227,97.850746 247.715851,93.540512 255.819427,93.094208 
z"/>
<path fill="#CCBEA7" opacity="1.000000" stroke="none" 
	d="
M34.515755,129.123077 
	C34.433411,138.007950 30.645807,143.053864 22.210087,145.040787 
	C17.436623,146.165085 17.064314,150.192001 15.789681,153.505295 
	C13.597775,159.202988 9.932840,162.626022 3.319250,163.072861 
	C2.683234,161.208542 2.450075,159.308075 2.653276,157.020721 
	C8.387167,155.179260 10.652081,151.722336 10.021970,146.053055 
	C9.523653,141.569565 6.972761,139.333344 2.228288,139.220779 
	C2.175745,138.251434 2.081824,137.282303 2.077238,136.312729 
	C2.042080,128.879517 2.047477,128.879486 9.866596,129.682770 
	C10.764148,132.105377 10.808400,134.356918 11.848800,135.963287 
	C14.147367,139.512268 17.835697,139.498703 21.569387,138.720764 
	C26.358557,137.722870 27.279356,133.829315 28.172569,129.913010 
	C30.158247,129.640137 32.143925,129.367264 34.515755,129.123077 
z"/>
<path fill="#CCC0A9" opacity="1.000000" stroke="none" 
	d="
M2.184258,223.514389 
	C10.955410,223.334930 14.632262,229.602692 17.989182,237.038666 
	C17.752563,240.597733 19.494677,240.769348 21.706503,241.098450 
	C29.680376,242.284805 35.240036,248.160706 35.953510,255.758240 
	C33.542141,255.820541 31.130770,255.882843 28.332081,255.524567 
	C27.133102,250.071686 23.411917,248.173981 19.087736,248.065918 
	C14.243275,247.944870 11.047535,250.693359 10.264559,255.736542 
	C2.159706,256.223724 2.125529,256.198181 2.545730,249.306122 
	C8.239608,248.486008 11.327700,244.879822 11.188247,239.373077 
	C11.054734,234.100891 8.158479,231.467682 2.193556,231.195297 
	C2.171180,228.783203 2.148805,226.371124 2.184258,223.514389 
z"/>
<path fill="#CDBDA6" opacity="1.000000" stroke="none" 
	d="
M2.128326,95.547424 
	C10.910344,94.837578 14.665474,98.157631 17.976376,108.911934 
	C18.312643,110.004173 19.212221,111.762207 19.892603,111.782295 
	C28.854998,112.047035 33.049133,117.776016 35.888248,125.582626 
	C33.473728,126.147728 31.021549,126.365494 28.224699,125.975128 
	C26.087896,120.849754 22.721153,119.224274 17.988346,119.696396 
	C13.886085,120.105606 11.180307,122.044289 9.979033,126.012794 
	C7.032497,125.116463 1.334429,128.851166 2.702006,121.014587 
	C8.723059,118.719467 11.865830,114.431206 11.110320,109.723061 
	C10.431378,105.492050 6.841566,102.458572 2.206638,102.199226 
	C2.172815,100.128136 2.138991,98.057053 2.128326,95.547424 
z"/>
<path fill="#CCBEA7" opacity="1.000000" stroke="none" 
	d="
M246.000610,157.999390 
	C244.646362,154.920181 243.542480,151.692581 241.839737,148.819946 
	C240.887558,147.213562 239.140625,145.572495 237.409576,145.020721 
	C229.734863,142.574387 224.289520,138.266769 223.042099,129.470673 
	C225.138794,129.099182 227.234039,129.106064 229.826996,129.482178 
	C230.874969,130.862152 231.184235,132.189758 232.019852,132.825348 
	C234.722321,134.880905 237.503510,138.018005 240.466080,138.272339 
	C245.056976,138.666443 248.358673,134.181854 248.896500,129.089828 
	C256.152039,128.962479 256.152039,128.962479 255.331451,136.939865 
	C253.048019,138.854523 250.630493,139.980988 249.441513,141.877609 
	C245.864090,147.584152 249.551437,154.751221 255.775131,154.778915 
	C255.798935,157.198715 255.822739,159.618530 255.455475,162.486420 
	C252.043152,161.289490 249.021881,159.644440 246.000610,157.999390 
z"/>
<path fill="#CDC1AA" opacity="1.000000" stroke="none" 
	d="
M161.531342,2.091206 
	C161.951599,8.744375 159.099258,14.016350 153.286880,14.725945 
	C147.167236,15.473054 145.300125,19.117887 143.925705,23.899191 
	C141.888107,30.987457 136.819702,33.769840 129.475571,33.960407 
	C129.072632,32.183167 129.072647,30.430964 129.474915,28.285183 
	C131.702225,26.874044 133.732025,26.102369 135.310242,24.788330 
	C138.719803,21.949514 139.527191,18.108952 137.824799,14.135908 
	C136.276215,10.521846 133.347473,8.538091 129.147598,9.162780 
	C128.917145,1.987414 128.917145,1.987414 137.716553,2.525676 
	C138.270370,7.999187 142.492722,8.902756 145.939407,9.726636 
	C150.042297,10.707373 153.657349,7.622180 155.243591,2.929354 
	C157.211151,2.645755 159.178726,2.362155 161.531342,2.091206 
z"/>
<path fill="#CBBFA8" opacity="1.000000" stroke="none" 
	d="
M224.472656,255.797211 
	C224.189178,246.449936 230.600128,242.860123 238.076324,240.084930 
	C239.532990,239.544220 241.672531,238.237289 241.788879,237.107834 
	C242.644196,228.804016 247.925369,224.707352 255.392670,222.081970 
	C255.767899,224.468613 255.816330,226.905029 255.490265,229.830872 
	C253.855438,231.349091 252.473801,232.261429 251.355484,233.426514 
	C246.102859,238.898773 248.315460,246.565765 255.714432,248.712448 
	C256.145508,252.659195 256.764893,256.742615 250.075424,255.435272 
	C247.563660,248.953461 245.505386,247.624512 239.136063,247.881027 
	C234.118408,248.083115 231.906174,250.919861 231.410507,255.571533 
	C229.250671,255.668915 227.090851,255.766312 224.472656,255.797211 
z"/>
<path fill="#CCBEA7" opacity="1.000000" stroke="none" 
	d="
M99.020630,245.019806 
	C102.714584,243.333588 106.610725,241.968506 110.016304,239.824280 
	C111.692596,238.768845 113.118958,236.403748 113.520546,234.402924 
	C114.872154,227.668854 119.734879,224.630859 125.636505,222.053802 
	C126.012032,224.377655 126.036621,226.744949 125.726776,229.713440 
	C121.064438,232.420837 118.852814,235.664032 119.767815,240.641891 
	C120.474495,244.486435 122.099068,247.393707 126.529976,247.595032 
	C125.796692,251.230591 128.062988,256.989258 120.276306,255.461731 
	C119.261681,249.641922 117.334747,247.886444 111.985786,247.814651 
	C105.639961,247.729446 103.371712,249.573929 102.319878,255.674713 
	C100.199944,255.733612 98.080009,255.792511 95.505020,255.450623 
	C96.373528,251.706497 97.697083,248.363159 99.020630,245.019806 
z"/>
<path fill="#CDBCA5" opacity="1.000000" stroke="none" 
	d="
M94.460976,125.990173 
	C95.396957,118.974594 98.371414,113.310959 106.313454,112.464294 
	C109.854156,112.086830 111.142830,110.408989 112.147659,107.098587 
	C114.118515,100.605621 117.381691,94.885193 125.602188,94.010361 
	C126.021942,96.262436 126.054657,98.511215 125.725800,101.244858 
	C121.071381,103.908638 117.934517,106.989830 119.024033,112.202393 
	C119.786247,115.849060 121.462517,119.177994 126.094955,119.203758 
	C126.122856,122.839302 126.986702,127.114098 120.424500,125.658730 
	C118.825226,120.092827 114.531250,118.366600 110.321075,118.455162 
	C106.053261,118.544937 102.693619,121.438591 101.689194,126.114601 
	C99.421661,126.081497 97.154121,126.048401 94.460976,125.990173 
z"/>
<path fill="#CDBCA6" opacity="1.000000" stroke="none" 
	d="
M126.018814,162.581451 
	C118.560677,161.736038 112.802254,155.897446 112.095406,148.446884 
	C111.855064,145.913513 110.990654,145.148117 108.508148,144.921127 
	C100.703979,144.207565 94.613358,137.717697 94.047165,129.490372 
	C96.194801,129.121582 98.325294,129.143005 100.843124,129.609253 
	C102.595657,136.001297 106.427979,139.167908 111.768837,138.761841 
	C116.314270,138.416245 119.148079,135.033691 119.791428,129.185745 
	C125.948051,128.920761 125.948051,128.920761 125.714874,137.399689 
	C120.955437,138.508270 119.430038,141.528091 118.868965,145.437836 
	C118.034622,151.251846 121.172867,154.370300 126.103699,156.324219 
	C126.080353,158.270340 126.056999,160.216461 126.018814,162.581451 
z"/>
<path fill="#CEBFA8" opacity="1.000000" stroke="none" 
	d="
M126.044189,33.633041 
	C117.147247,32.511471 112.614456,27.950785 110.926216,19.283918 
	C110.690750,18.075115 109.277458,16.282675 108.253990,16.169832 
	C100.482635,15.313020 95.818680,11.181910 93.921143,3.294501 
	C95.856041,2.915096 97.880264,2.905660 100.452072,3.241418 
	C102.020340,4.860001 102.789490,6.664165 104.115776,7.292711 
	C106.626549,8.482605 109.635841,9.995252 112.111580,9.551712 
	C115.545769,8.936467 118.861717,6.801179 118.736137,2.264103 
	C120.981422,2.264103 123.226707,2.264103 125.566986,2.264103 
	C125.991020,4.577641 126.340317,6.483433 126.119537,8.672026 
	C120.291733,10.177827 118.676987,13.581641 118.825638,18.789055 
	C118.972389,23.929968 122.021698,25.932753 126.107925,27.385057 
	C126.089188,29.327393 126.070442,31.269728 126.044189,33.633041 
z"/>
<path fill="#CDBFA9" opacity="1.000000" stroke="none" 
	d="
M255.852020,32.457527 
	C248.761658,34.042858 243.202347,31.015427 240.945450,21.713282 
	C239.476654,15.659507 236.366806,14.791577 231.100006,13.897081 
	C226.868362,10.536738 223.244324,7.440121 223.110580,2.137579 
	C225.210876,2.153076 227.311172,2.168573 229.871429,2.578241 
	C231.743347,7.782682 235.435196,8.996354 239.849640,8.832987 
	C244.096130,8.675835 246.885620,6.582479 247.738785,2.259553 
	C250.851120,2.874417 256.206207,-0.575473 255.237732,7.043395 
	C250.553497,8.297547 247.125046,12.662046 247.049637,17.311861 
	C246.983749,21.375391 250.666092,25.381689 255.614304,26.629993 
	C255.706619,28.424131 255.798950,30.218271 255.852020,32.457527 
z"/>
<path fill="#D3D6BC" opacity="1.000000" stroke="none" 
	d="
M255.871246,92.624352 
	C247.715851,93.540512 242.476227,97.850746 240.896118,105.612793 
	C240.006027,109.985306 237.660492,111.440956 233.900635,112.199486 
	C232.143463,112.553986 230.472931,113.337837 228.425934,113.633240 
	C229.300949,111.605225 230.513138,109.871040 231.725327,108.136856 
	C231.305984,108.133583 230.886658,108.130310 230.467316,108.127037 
	C230.201370,104.910767 230.019043,101.684082 229.620331,98.484360 
	C229.494949,97.478035 228.788635,96.544098 228.348221,95.577034 
	C229.718689,94.449120 231.089157,93.321213 232.962555,91.952850 
	C234.051910,91.209816 234.638336,90.707222 235.224747,90.204620 
	C237.559036,89.147331 239.893326,88.090042 242.943146,86.912033 
	C245.182190,86.265335 246.705719,85.739372 248.229248,85.213409 
	C250.444916,85.037918 252.660599,84.862427 255.277252,84.596115 
	C255.759872,87.055031 255.841476,89.604759 255.871246,92.624352 
z"/>
<path fill="#CDBFA9" opacity="1.000000" stroke="none" 
	d="
M33.429390,2.123378 
	C33.975544,9.317786 30.391167,13.773587 22.969707,16.001543 
	C20.165373,17.304991 16.505850,18.404129 16.353456,19.868298 
	C15.798843,25.196880 13.413139,29.255648 9.973465,32.984924 
	C7.894253,33.343632 5.815042,33.702339 3.331670,34.100239 
	C2.908058,32.460735 2.888606,30.782042 3.240995,28.580585 
	C8.871594,26.063168 10.652098,22.050829 9.961511,16.769695 
	C9.376518,12.296071 6.347831,10.150298 2.217560,9.222049 
	C1.912809,2.136425 1.912809,2.136425 8.682952,2.530455 
	C10.122284,4.981799 10.725235,7.687252 12.406230,8.907012 
	C18.005165,12.969699 24.806444,9.864883 27.645281,2.348416 
	C29.426304,2.263932 31.207327,2.179446 33.429390,2.123378 
z"/>
<path fill="#D0D5BE" opacity="1.000000" stroke="none" 
	d="
M2.171233,179.051132 
	C14.383249,179.682617 24.350578,174.762085 33.720123,167.210098 
	C34.030910,170.021942 34.030910,172.957489 34.030910,175.964920 
	C36.882908,178.104782 40.093353,180.513580 43.664185,182.977112 
	C40.815880,189.676697 37.084267,190.404999 30.854662,187.728699 
	C22.092363,183.964310 12.860694,181.281845 2.613237,182.057693 
	C2.144883,181.214951 2.119010,180.347092 2.171233,179.051132 
z"/>
<path fill="#D4D7BF" opacity="1.000000" stroke="none" 
	d="
M228.055847,95.704277 
	C228.788635,96.544098 229.494949,97.478035 229.620331,98.484360 
	C230.019043,101.684082 230.201370,104.910767 230.467316,108.127037 
	C230.886658,108.130310 231.305984,108.133583 231.725327,108.136856 
	C230.513138,109.871040 229.300949,111.605225 228.051178,113.688278 
	C227.525909,114.610748 227.038193,115.184341 225.951447,115.946388 
	C224.908875,117.095505 224.465347,118.056160 224.021835,119.016815 
	C224.021835,119.016815 224.001831,119.002953 223.686722,119.044678 
	C222.726685,119.637131 222.081772,120.187859 221.436844,120.738579 
	C221.959610,121.159386 222.482376,121.580200 223.005157,122.001015 
	C222.997131,123.081047 222.989105,124.161087 222.972748,125.647919 
	C220.182129,126.239944 217.399841,126.425171 214.331573,126.359177 
	C214.755005,114.265419 218.855728,103.959465 228.055847,95.704277 
z"/>
<path fill="#698085" opacity="1.000000" stroke="none" 
	d="
M255.148010,68.604103 
	C246.291473,69.148964 237.820389,68.266815 229.714722,63.603909 
	C235.599152,59.685097 241.955536,58.521389 248.497314,57.942749 
	C250.638901,57.753319 252.778275,57.538887 255.299484,57.294739 
	C255.556778,60.912357 255.433243,64.571121 255.148010,68.604103 
z"/>
<path fill="#698085" opacity="1.000000" stroke="none" 
	d="
M129.447891,58.859550 
	C138.391190,57.987156 146.699097,59.686737 155.151749,63.667053 
	C147.206223,69.485031 138.300156,68.248802 129.686783,69.800873 
	C129.288513,66.253746 129.288956,62.755672 129.447891,58.859550 
z"/>
<path fill="#647C82" opacity="1.000000" stroke="none" 
	d="
M69.453445,129.092667 
	C70.684151,138.049026 69.568802,146.615585 65.098129,155.625748 
	C60.215824,147.182144 59.109333,138.723099 59.057400,129.563324 
	C62.399158,129.096481 65.702171,129.070358 69.453445,129.092667 
z"/>
<path fill="#677E84" opacity="1.000000" stroke="none" 
	d="
M188.808334,255.595856 
	C186.814026,246.307281 190.451050,238.133942 193.301346,229.077316 
	C198.604111,237.360657 198.729538,246.145752 199.605682,255.099289 
	C196.121887,255.538162 192.674789,255.612320 188.808334,255.595856 
z"/>
<path fill="#647C82" opacity="1.000000" stroke="none" 
	d="
M198.445709,129.096054 
	C199.717453,138.394363 197.871994,147.101486 193.455765,155.839951 
	C189.565506,147.309570 187.236404,139.007492 188.063354,129.584686 
	C191.400879,129.109970 194.699188,129.084854 198.445709,129.096054 
z"/>
<path fill="#698085" opacity="1.000000" stroke="none" 
	d="
M134.022217,187.024048 
	C141.431030,188.428528 148.839844,189.833023 156.248657,191.237503 
	C156.242874,191.921280 156.237076,192.605057 156.231277,193.288834 
	C147.853302,196.576736 139.153671,198.339600 129.612518,197.807953 
	C129.177475,194.864883 129.105698,191.948776 129.434921,188.559723 
	C131.231354,187.732544 132.626785,187.378296 134.022217,187.024048 
z"/>
<path fill="#647C82" opacity="1.000000" stroke="none" 
	d="
M187.374817,126.134689 
	C187.154053,117.420090 188.251419,108.991302 192.556259,100.446487 
	C197.478912,108.515526 198.036301,116.901253 199.050873,125.597519 
	C195.317215,126.094673 191.576584,126.159393 187.374817,126.134689 
z"/>
<path fill="#698085" opacity="1.000000" stroke="none" 
	d="
M2.331223,59.731895 
	C10.914489,58.439556 18.966875,59.962818 27.873024,64.274124 
	C19.533367,68.962959 11.435946,69.721970 2.766941,69.806168 
	C2.318661,66.542183 2.288862,63.350544 2.331223,59.731895 
z"/>
<path fill="#698085" opacity="1.000000" stroke="none" 
	d="
M2.296541,188.695618 
	C11.084010,187.121994 19.083080,189.486038 26.929951,193.093597 
	C19.397995,197.283600 11.655314,199.539688 2.800800,198.772858 
	C2.331452,195.520737 2.287456,192.324234 2.296541,188.695618 
z"/>
<path fill="#647C82" opacity="1.000000" stroke="none" 
	d="
M59.053452,126.413292 
	C59.249931,117.730240 60.168190,109.456657 64.597130,101.091431 
	C68.610725,109.412048 70.617104,117.409538 70.017914,126.465439 
	C66.430077,126.853645 62.891071,126.789055 59.053452,126.413292 
z"/>
<path fill="#698085" opacity="1.000000" stroke="none" 
	d="
M255.657379,198.240448 
	C247.382812,198.369110 239.481903,196.887802 232.042114,192.683334 
	C239.162643,188.545059 247.008194,187.920685 255.226929,187.240448 
	C255.662201,190.796249 255.698593,194.304825 255.657379,198.240448 
z"/>
<path fill="#D7DBC5" opacity="1.000000" stroke="none" 
	d="
M222.636871,2.097757 
	C223.244324,7.440121 226.868362,10.536738 230.704041,13.844261 
	C229.382980,18.813957 225.250092,20.464165 220.648956,21.976082 
	C218.143875,15.654536 215.988449,9.322398 213.656952,2.638883 
	C216.374985,2.210982 219.269073,2.134459 222.636871,2.097757 
z"/>
<path fill="#677E84" opacity="1.000000" stroke="none" 
	d="
M126.047836,69.544312 
	C118.206474,68.881706 110.115448,69.185623 102.406784,64.201797 
	C109.576675,58.858395 117.701302,59.492966 125.614807,57.925377 
	C126.082397,61.637325 126.115334,65.364235 126.047836,69.544312 
z"/>
<path fill="#677E84" opacity="1.000000" stroke="none" 
	d="
M69.330833,2.258365 
	C68.420273,10.646260 67.072571,18.995497 65.724876,27.344732 
	C65.170448,27.299435 64.616020,27.254135 64.061592,27.208838 
	C60.205372,19.677191 58.547546,11.653413 59.138557,2.711999 
	C62.436291,2.261457 65.664993,2.240582 69.330833,2.258365 
z"/>
<path fill="#677E84" opacity="1.000000" stroke="none" 
	d="
M60.626465,255.762421 
	C59.158688,247.164093 61.103016,239.176987 64.902870,230.798508 
	C70.050133,238.534424 69.624077,246.900208 70.746849,255.256287 
	C67.501213,255.691605 64.284248,255.741074 60.626465,255.762421 
z"/>
<path fill="#677E84" opacity="1.000000" stroke="none" 
	d="
M198.078781,2.684556 
	C198.035049,10.764430 197.550171,18.594736 192.816666,25.868633 
	C188.267715,18.695942 187.992493,10.811663 187.152023,2.689626 
	C190.711319,2.341891 194.208435,2.396734 198.078781,2.684556 
z"/>
<path fill="#677E84" opacity="1.000000" stroke="none" 
	d="
M126.049362,198.456116 
	C117.930687,197.794617 109.725700,197.457321 101.459450,192.881226 
	C109.559525,188.726318 117.287567,188.009445 125.615189,187.874756 
	C126.104271,191.227615 126.131805,194.621277 126.049362,198.456116 
z"/>
<path fill="#C7CBB4" opacity="1.000000" stroke="none" 
	d="
M36.415810,255.823242 
	C35.240036,248.160706 29.680376,242.284805 21.706503,241.098450 
	C19.494677,240.769348 17.752563,240.597733 18.002085,237.403809 
	C25.163445,238.650696 32.326965,240.301392 39.914330,241.938995 
	C41.610310,246.252625 42.882450,250.579315 44.297218,255.265274 
	C41.919270,255.712448 39.398689,255.800339 36.415810,255.823242 
z"/>
<path fill="#C35029" opacity="1.000000" stroke="none" 
	d="
M129.121613,138.642578 
	C133.985199,135.690948 136.209320,139.394882 138.367294,142.374298 
	C140.479828,145.290939 139.332840,151.544601 136.289993,153.680908 
	C134.561600,154.894363 132.170090,155.163315 129.711761,155.747101 
	C129.256393,150.122849 129.166443,144.609116 129.121613,138.642578 
z"/>
<path fill="#C3512A" opacity="1.000000" stroke="none" 
	d="
M27.757542,129.790222 
	C27.279356,133.829315 26.358557,137.722870 21.569387,138.720764 
	C17.835697,139.498703 14.147367,139.512268 11.848800,135.963287 
	C10.808400,134.356918 10.764148,132.105377 10.329971,129.767395 
	C16.042147,129.481308 21.692329,129.574371 27.757542,129.790222 
z"/>
<path fill="#C3512A" opacity="1.000000" stroke="none" 
	d="
M119.340584,129.126938 
	C119.148079,135.033691 116.314270,138.416245 111.768837,138.761841 
	C106.427979,139.167908 102.595657,136.001297 101.293953,129.703156 
	C107.201546,129.257538 113.045639,129.162842 119.340584,129.126938 
z"/>
<path fill="#C3512A" opacity="1.000000" stroke="none" 
	d="
M129.123718,9.619843 
	C133.347473,8.538091 136.276215,10.521846 137.824799,14.135908 
	C139.527191,18.108952 138.719803,21.949514 135.310242,24.788330 
	C133.732025,26.102369 131.702225,26.874044 129.523773,27.847889 
	C129.146866,21.895081 129.123367,15.985993 129.123718,9.619843 
z"/>
<path fill="#C35029" opacity="1.000000" stroke="none" 
	d="
M156.396179,129.077057 
	C155.611008,131.676895 155.023941,135.093964 153.006073,136.623749 
	C146.790039,141.336212 140.495178,138.245743 138.113144,129.475403 
	C144.069870,129.086105 150.004837,129.058578 156.396179,129.077057 
z"/>
<path fill="#C3512A" opacity="1.000000" stroke="none" 
	d="
M129.641083,240.403046 
	C129.910126,236.888229 130.218521,233.670807 130.531677,230.403656 
	C137.401489,231.869965 140.313950,235.669250 139.346252,241.366013 
	C138.442520,246.686218 136.269363,248.251297 130.524063,247.451599 
	C130.340698,245.920624 130.147598,244.308380 129.778534,242.295563 
	C129.628525,241.496811 129.654465,241.098618 129.641083,240.403046 
z"/>
<path fill="#C34D26" opacity="1.000000" stroke="none" 
	d="
M129.068848,102.555176 
	C134.580795,101.879303 138.929642,105.522766 139.100876,110.483971 
	C139.262787,115.175018 135.249603,118.898346 129.479095,118.975067 
	C129.071167,113.611122 129.061127,108.313751 129.068848,102.555176 
z"/>
<path fill="#C4542D" opacity="1.000000" stroke="none" 
	d="
M255.674927,26.190910 
	C250.666092,25.381689 246.983749,21.375391 247.049637,17.311861 
	C247.125046,12.662046 250.553497,8.297547 255.131516,7.468252 
	C255.554825,13.576735 255.645187,19.664282 255.674927,26.190910 
z"/>
<path fill="#C4542D" opacity="1.000000" stroke="none" 
	d="
M2.200366,102.654053 
	C6.841566,102.458572 10.431378,105.492050 11.110320,109.723061 
	C11.865830,114.431206 8.723059,118.719467 2.815054,120.578163 
	C2.392055,114.740700 2.293074,108.924797 2.200366,102.654053 
z"/>
<path fill="#C4542D" opacity="1.000000" stroke="none" 
	d="
M2.197568,231.649902 
	C8.158479,231.467682 11.054734,234.100891 11.188247,239.373077 
	C11.327700,244.879822 8.239608,248.486008 2.600993,248.868561 
	C2.219467,243.215637 2.210523,237.660080 2.197568,231.649902 
z"/>
<path fill="#C3512A" opacity="1.000000" stroke="none" 
	d="
M248.435730,129.064575 
	C248.358673,134.181854 245.056976,138.666443 240.466080,138.272339 
	C237.503510,138.018005 234.722321,134.880905 232.019852,132.825348 
	C231.184235,132.189758 230.874969,130.862152 230.276703,129.523834 
	C236.144135,129.143951 242.059540,129.091644 248.435730,129.064575 
z"/>
<path fill="#C8CCB5" opacity="1.000000" stroke="none" 
	d="
M51.058922,255.783447 
	C49.413441,249.446182 48.163406,243.168289 46.828407,236.526306 
	C47.116165,235.652237 47.735100,235.180878 47.822094,234.626129 
	C48.436996,230.704697 49.886406,228.810989 53.842293,231.700165 
	C54.405750,232.111694 55.414352,231.913742 56.607059,231.998932 
	C55.671459,239.643234 54.345737,247.286469 53.034245,255.346298 
	C52.517105,255.789536 51.985741,255.816193 51.058922,255.783447 
z"/>
<path fill="#C4542D" opacity="1.000000" stroke="none" 
	d="
M27.204195,2.298508 
	C24.806444,9.864883 18.005165,12.969699 12.406230,8.907012 
	C10.725235,7.687252 10.122284,4.981799 9.118467,2.585216 
	C15.062018,2.225176 20.912563,2.236888 27.204195,2.298508 
z"/>
<path fill="#C4542D" opacity="1.000000" stroke="none" 
	d="
M231.843445,255.650070 
	C231.906174,250.919861 234.118408,248.083115 239.136063,247.881027 
	C245.505386,247.624512 247.563660,248.953461 249.644897,255.348785 
	C243.872757,255.695786 238.074570,255.712189 231.843445,255.650070 
z"/>
<path fill="#C4542D" opacity="1.000000" stroke="none" 
	d="
M255.751892,118.282661 
	C252.361130,119.103691 249.393875,117.924446 248.938126,114.552063 
	C248.483276,111.186394 248.915329,107.531204 249.799622,104.228127 
	C250.220963,102.654312 252.593399,101.602837 254.380493,100.204941 
	C255.043854,106.008163 255.408737,111.921204 255.751892,118.282661 
z"/>
<path fill="#C4542D" opacity="1.000000" stroke="none" 
	d="
M102.763763,255.718384 
	C103.371712,249.573929 105.639961,247.729446 111.985786,247.814651 
	C117.334747,247.886444 119.261681,249.641922 119.837799,255.402084 
	C114.252937,255.773651 108.730301,255.767853 102.763763,255.718384 
z"/>
<path fill="#C55630" opacity="1.000000" stroke="none" 
	d="
M2.202589,9.675092 
	C6.347831,10.150298 9.376518,12.296071 9.961511,16.769695 
	C10.652098,22.050829 8.871594,26.063168 3.256160,28.165993 
	C2.662195,22.225487 2.424906,16.176811 2.202589,9.675092 
z"/>
<path fill="#C55630" opacity="1.000000" stroke="none" 
	d="
M2.216404,139.673233 
	C6.972761,139.333344 9.523653,141.569565 10.021970,146.053055 
	C10.652081,151.722336 8.387167,155.179260 2.753612,156.621796 
	C2.346566,151.115082 2.275544,145.620377 2.216404,139.673233 
z"/>
<path fill="#C8CCB5" opacity="1.000000" stroke="none" 
	d="
M98.684280,244.834641 
	C97.697083,248.363159 96.373528,251.706497 95.054062,255.407410 
	C92.574005,255.807419 90.089867,255.849838 87.139404,255.816788 
	C87.442299,251.613708 88.211494,247.486084 89.243195,243.130096 
	C92.453102,243.484299 95.400513,244.066879 98.684280,244.834641 
z"/>
<path fill="#C55630" opacity="1.000000" stroke="none" 
	d="
M139.792709,255.698486 
	C138.827957,250.303436 142.566025,248.787125 146.613678,248.060196 
	C151.492661,247.183960 155.132034,249.885941 156.786469,255.396805 
	C151.237320,255.749756 145.734924,255.753235 139.792709,255.698486 
z"/>
<path fill="#C55630" opacity="1.000000" stroke="none" 
	d="
M255.787109,154.326523 
	C249.551437,154.751221 245.864090,147.584152 249.441513,141.877609 
	C250.630493,139.980988 253.048019,138.854523 255.224487,137.400238 
	C255.629745,142.907715 255.714401,148.390915 255.787109,154.326523 
z"/>
<path fill="#C45933" opacity="1.000000" stroke="none" 
	d="
M10.713337,255.768448 
	C11.047535,250.693359 14.243275,247.944870 19.087736,248.065918 
	C23.411917,248.173981 27.133102,250.071686 27.881805,255.460266 
	C22.266605,255.811142 16.714361,255.805756 10.713337,255.768448 
z"/>
<path fill="#C55630" opacity="1.000000" stroke="none" 
	d="
M118.287186,2.239488 
	C118.861717,6.801179 115.545769,8.936467 112.111580,9.551712 
	C109.635841,9.995252 106.626549,8.482605 104.115776,7.292711 
	C102.789490,6.664165 102.020340,4.860001 100.878647,3.249225 
	C106.451164,2.679517 112.144699,2.447195 118.287186,2.239488 
z"/>
<path fill="#C55630" opacity="1.000000" stroke="none" 
	d="
M154.901398,2.663554 
	C153.657349,7.622180 150.042297,10.707373 145.939407,9.726636 
	C142.492722,8.902756 138.270370,7.999187 138.180328,2.582217 
	C143.674988,2.281568 149.117096,2.339661 154.901398,2.663554 
z"/>
<path fill="#C35029" opacity="1.000000" stroke="none" 
	d="
M138.294067,126.199646 
	C138.777115,121.152069 142.203659,118.416496 146.771042,118.306427 
	C151.303329,118.197189 155.042557,120.504478 156.032272,125.987411 
	C150.270355,126.359711 144.516907,126.337784 138.294067,126.199646 
z"/>
<path fill="#C35029" opacity="1.000000" stroke="none" 
	d="
M102.174271,126.211990 
	C102.693619,121.438591 106.053261,118.544937 110.321075,118.455162 
	C114.531250,118.366600 118.825226,120.092827 119.993431,125.638199 
	C114.220383,126.106079 108.439873,126.207726 102.174271,126.211990 
z"/>
<path fill="#C35029" opacity="1.000000" stroke="none" 
	d="
M230.597229,126.015358 
	C231.287613,120.759377 235.084564,118.283394 239.743225,118.320068 
	C243.870728,118.352562 246.843979,121.280319 248.059402,125.846527 
	C242.359406,126.196007 236.700485,126.165627 230.597229,126.015358 
z"/>
<path fill="#C45933" opacity="1.000000" stroke="none" 
	d="
M255.749298,248.265594 
	C248.315460,246.565765 246.102859,238.898773 251.355484,233.426514 
	C252.473801,232.261429 253.855438,231.349091 255.433380,230.287628 
	C255.762070,236.109558 255.773117,241.964142 255.749298,248.265594 
z"/>
<path fill="#CBCFB2" opacity="1.000000" stroke="none" 
	d="
M245.998596,158.402771 
	C249.021881,159.644440 252.043152,161.289490 255.409454,162.935120 
	C255.748932,165.506973 255.743362,168.078217 255.591324,171.131668 
	C251.773056,170.684845 248.101288,169.755814 244.184982,168.571625 
	C244.625839,165.146362 245.311218,161.976257 245.998596,158.402771 
z"/>
<path fill="#C24B22" opacity="1.000000" stroke="none" 
	d="
M126.193130,26.891033 
	C122.021698,25.932753 118.972389,23.929968 118.825638,18.789055 
	C118.676987,13.581641 120.291733,10.177827 125.943237,8.963096 
	C126.317467,14.779913 126.297905,20.588461 126.193130,26.891033 
z"/>
<path fill="#C34D26" opacity="1.000000" stroke="none" 
	d="
M126.203613,155.838989 
	C121.172867,154.370300 118.034622,151.251846 118.868965,145.437836 
	C119.430038,141.528091 120.955437,138.508270 125.695984,137.842758 
	C126.156769,143.673843 126.230148,149.513794 126.203613,155.838989 
z"/>
<path fill="#C8CCB5" opacity="1.000000" stroke="none" 
	d="
M83.828064,235.082260 
	C82.599678,241.710556 80.958733,248.318741 79.349136,255.308655 
	C78.841995,255.748627 78.303513,255.806839 77.359970,255.817673 
	C76.006569,249.106567 75.058243,242.442841 74.058029,235.388763 
	C77.142601,235.019669 80.279060,235.040909 83.828064,235.082260 
z"/>
<path fill="#C45933" opacity="1.000000" stroke="none" 
	d="
M247.289795,2.228957 
	C246.885620,6.582479 244.096130,8.675835 239.849640,8.832987 
	C235.435196,8.996354 231.743347,7.782682 230.319580,2.641461 
	C235.818771,2.273127 241.329788,2.235744 247.289795,2.228957 
z"/>
<path fill="#C35029" opacity="1.000000" stroke="none" 
	d="
M126.519821,247.172897 
	C122.099068,247.393707 120.474495,244.486435 119.767815,240.641891 
	C118.852814,235.664032 121.064438,232.420837 125.698486,230.156586 
	C126.172966,235.582626 126.341316,241.166687 126.519821,247.172897 
z"/>
<path fill="#C24B23" opacity="1.000000" stroke="none" 
	d="
M126.173828,118.725006 
	C121.462517,119.177994 119.786247,115.849060 119.024033,112.202393 
	C117.934517,106.989830 121.071381,103.908638 125.740021,101.662430 
	C126.161446,107.145515 126.207077,112.695885 126.173828,118.725006 
z"/>
<path fill="#C34D26" opacity="1.000000" stroke="none" 
	d="
M10.432522,126.147537 
	C11.180307,122.044289 13.886085,120.105606 17.988346,119.696396 
	C22.721153,119.224274 26.087896,120.849754 27.946379,125.722832 
	C22.303823,126.146530 16.594917,126.214401 10.432522,126.147537 
z"/>
<path fill="#C8CCB0" opacity="1.000000" stroke="none" 
	d="
M164.427979,255.833420 
	C163.743256,254.075287 163.522049,252.380066 163.559631,250.342346 
	C166.301163,249.211487 168.783890,248.423141 171.266632,247.634796 
	C171.631729,250.019272 171.996841,252.403732 172.430328,255.184799 
	C169.962982,255.686386 167.427261,255.791367 164.427979,255.833420 
z"/>
<path fill="#D2D6BE" opacity="1.000000" stroke="none" 
	d="
M118.996544,178.522720 
	C121.162941,178.190826 123.330544,178.213104 125.878387,178.160965 
	C126.326942,178.934662 126.395264,179.782791 126.244400,180.814056 
	C123.976479,180.998993 121.927750,181.000793 119.440918,181.003571 
	C119.001144,180.295303 118.999451,179.586105 118.996544,178.522720 
z"/>
<path fill="#D1D5BA" opacity="1.000000" stroke="none" 
	d="
M133.763306,186.760330 
	C132.626785,187.378296 131.231354,187.732544 129.471237,188.120758 
	C129.085754,187.662949 129.064957,187.171219 129.082138,186.310974 
	C130.581543,186.127197 132.042984,186.311905 133.763306,186.760330 
z"/>
<path fill="#C24B23" opacity="1.000000" stroke="none" 
	d="
M185.312500,204.704956 
	C180.840744,200.738922 176.620834,197.028717 174.183716,194.885971 
	C180.921219,187.577606 187.684891,180.240860 194.274185,173.093262 
	C200.668915,179.269302 207.646393,186.008163 214.272476,192.407639 
	C207.147156,198.627884 199.675354,205.150620 192.203552,211.673340 
	C192.731369,212.625671 193.259186,213.577988 193.787018,214.530304 
	C191.046127,211.340469 188.305237,208.150620 185.312500,204.704956 
z"/>
<path fill="#CBCFB2" opacity="1.000000" stroke="none" 
	d="
M179.530441,253.890991 
	C179.145065,245.857010 176.455826,238.503036 172.573914,231.176117 
	C174.834290,227.496521 177.700577,224.353256 179.324173,220.663223 
	C180.632050,217.690735 180.438080,214.057419 180.958282,210.355713 
	C189.856918,217.134186 190.779434,222.054642 186.175568,232.445877 
	C184.476135,236.281601 184.130127,240.699936 182.966187,244.795532 
	C182.099380,247.845566 180.909637,250.803802 179.530441,253.890991 
z"/>
<path fill="#C24B22" opacity="1.000000" stroke="none" 
	d="
M64.979866,172.373077 
	C71.829147,179.637283 78.337715,186.900299 84.699165,193.999146 
	C78.849106,200.117813 72.035507,207.244263 66.758293,212.763779 
	C60.108044,205.947418 53.141685,198.807053 46.277653,191.771561 
	C51.139088,186.635269 57.889126,179.503586 64.979866,172.373077 
z"/>
<path fill="#D0D5BE" opacity="1.000000" stroke="none" 
	d="
M44.377914,182.980255 
	C45.316231,178.874893 46.339672,174.455215 52.631332,175.013947 
	C50.266876,177.659195 47.496933,180.297501 44.377914,182.980255 
z"/>
<path fill="#D6D8C1" opacity="1.000000" stroke="none" 
	d="
M206.040680,3.827766 
	C209.210480,11.246882 210.941025,19.577366 215.094757,26.441492 
	C223.116455,39.697556 235.632736,47.035389 251.580658,48.945778 
	C247.306976,50.658520 242.635742,52.363213 237.921494,53.939354 
	C235.104309,54.881241 231.693054,54.921345 229.470871,56.592720 
	C224.207581,60.551373 219.623474,59.744339 215.420731,55.590462 
	C209.339005,49.579441 203.264893,43.493290 197.934586,36.840622 
	C196.721909,35.327129 198.401703,31.324493 199.039719,28.533749 
	C200.608871,21.670286 202.310135,14.836082 204.047104,8.012726 
	C204.394226,6.649137 205.136215,5.386070 206.040680,3.827766 
z"/>
<path fill="#C24A22" opacity="1.000000" stroke="none" 
	d="
M212.236618,61.822506 
	C212.753433,63.088799 213.533768,64.694901 213.122726,65.103996 
	C206.373596,71.821335 199.474228,78.387756 193.660950,83.976440 
	C187.239334,77.170387 180.356888,69.875916 174.873932,64.064713 
	C180.337280,59.012131 187.667877,52.232708 194.918884,45.526890 
	C198.900513,49.286732 205.423157,55.446045 212.236618,61.822506 
z"/>
<path fill="#C24B22" opacity="1.000000" stroke="none" 
	d="
M48.175098,60.246094 
	C53.759212,54.417927 59.065544,48.816952 63.225155,44.426369 
	C70.231422,51.272217 77.283035,58.162380 84.323517,65.041656 
	C78.230469,71.362579 71.312752,78.539009 64.827553,85.266754 
	C58.297600,78.095932 51.463242,70.590828 44.628887,63.085724 
	C44.063477,63.506413 43.498070,63.927105 42.932659,64.347794 
	C44.587547,63.056290 46.242432,61.764782 48.175098,60.246094 
z"/>
<path fill="#CBCFB9" opacity="1.000000" stroke="none" 
	d="
M125.106468,77.146210 
	C125.010056,77.419830 124.760208,77.481018 124.131630,77.455933 
	C124.152946,77.224365 124.552986,77.079071 125.106468,77.146210 
z"/>
<path fill="#CAC0AA" opacity="1.000000" stroke="none" 
	d="
M247.062805,177.720856 
	C247.827850,177.419525 248.690979,177.398331 249.804230,177.592728 
	C249.089859,177.872543 248.125381,177.936783 247.062805,177.720856 
z"/>
<path fill="#CAC0AA" opacity="1.000000" stroke="none" 
	d="
M234.047531,173.455093 
	C234.910339,173.535233 235.859604,173.948975 236.982544,174.636627 
	C236.148804,174.536606 235.141388,174.162659 234.047531,173.455093 
z"/>
<path fill="#D5DAC4" opacity="1.000000" stroke="none" 
	d="
M10.375193,32.989883 
	C13.413139,29.255648 15.798843,25.196880 16.353456,19.868298 
	C16.505850,18.404129 20.165373,17.304991 22.616091,16.062202 
	C23.716951,18.358805 24.417299,20.631556 25.272732,23.407579 
	C20.314602,25.728102 18.252478,33.277184 10.375193,32.989883 
z"/>
<path fill="#D5DAC4" opacity="1.000000" stroke="none" 
	d="
M24.720362,35.008736 
	C24.284479,35.687382 23.485754,36.371166 22.361092,37.076603 
	C22.809273,36.403461 23.583397,35.708668 24.720362,35.008736 
z"/>
<path fill="#D5DAC4" opacity="1.000000" stroke="none" 
	d="
M15.985568,40.075317 
	C15.616526,40.519257 15.094851,40.710743 14.285212,40.875084 
	C14.609145,40.506245 15.221040,40.164555 15.985568,40.075317 
z"/>
<path fill="#C9CEB1" opacity="1.000000" stroke="none" 
	d="
M171.240295,247.255417 
	C168.783890,248.423141 166.301163,249.211487 163.407684,250.000381 
	C160.104584,247.200180 157.212219,244.399429 154.157806,241.306488 
	C156.049515,236.664505 158.796722,234.830246 163.358002,238.057861 
	C164.148117,238.616959 165.671707,238.139526 167.088516,237.825500 
	C168.618332,240.632111 169.916138,243.754074 171.240295,247.255417 
z"/>
<path fill="#8C9688" opacity="1.000000" stroke="none" 
	d="
M247.829559,85.170975 
	C246.705719,85.739372 245.182190,86.265335 243.266449,86.757172 
	C244.392776,86.191551 245.911331,85.660057 247.829559,85.170975 
z"/>
<path fill="#8C9688" opacity="1.000000" stroke="none" 
	d="
M234.909332,90.184036 
	C234.638336,90.707222 234.051910,91.209816 233.150848,91.685562 
	C233.422119,91.160278 234.008026,90.661858 234.909332,90.184036 
z"/>
<path fill="#D3D6BC" opacity="1.000000" stroke="none" 
	d="
M223.251099,121.782860 
	C222.482376,121.580200 221.959610,121.159386 221.436844,120.738579 
	C222.081772,120.187859 222.726685,119.637131 223.698013,119.054230 
	C223.848633,119.869598 223.672852,120.717155 223.251099,121.782860 
z"/>
<path fill="#D3D6BC" opacity="1.000000" stroke="none" 
	d="
M224.302277,118.865303 
	C224.465347,118.056160 224.908875,117.095505 225.695038,116.076233 
	C225.552719,116.916344 225.067734,117.815071 224.302277,118.865303 
z"/>
</svg>